SplineFontDB: 3.0
FontName: HadasimCLM-Regular
FullName: Hadasim CLM Regular
FamilyName: Hadasim CLM
Weight: Regular
Copyright: Inspired by Henri Friedlander Hadasa font.\n\nCopyright 2010 by Yoram Gnat (yoram.gnat@gmail.com). Distributed under the terms of GNU GPL version2 (http://www.gnu.org/licenses/gpl.html).\n\nLatin and parts of general punctuation marks based on modified forms from the LiberationSerif font, created by Digitized data `2007 Ascender Corporation. All rights reserved. \n\nAs a special exception, if you create a document which uses this font, and embed this font or unaltered portions of this font into the document, this font does not by itself cause the resulting document to be covered by the GNU General Public License. This exception does not however invalidate any other reasons why the document might be covered by the GNU General Public License. If you modify this font, you may extend this exception to your version of the font, but you are not obligated to do so. If you do not wish to do so, delete this exception statement from your version.
Version: 0.110
ItalicAngle: 0
UnderlinePosition: -1228
UnderlineWidth: 184
Ascent: 1638
Descent: 410
LayerCount: 2
Layer: 0 0 "Back"  1
Layer: 1 0 "Fore"  0
NeedsXUIDChange: 1
UniqueID: 4247518
FSType: 0
OS2Version: 0
OS2_WeightWidthSlopeOnly: 0
OS2_UseTypoMetrics: 0
CreationTime: 1235598109
ModificationTime: 1286636141
PfmFamily: 17
TTFWeight: 400
TTFWidth: 5
LineGap: 184
VLineGap: 0
OS2TypoAscent: 0
OS2TypoAOffset: 1
OS2TypoDescent: 0
OS2TypoDOffset: 1
OS2TypoLinegap: 184
OS2WinAscent: 0
OS2WinAOffset: 1
OS2WinDescent: 50
OS2WinDOffset: 1
HheadAscent: 0
HheadAOffset: 1
HheadDescent: 0
HheadDOffset: 1
OS2Vendor: 'PfEd'
Lookup: 4 1 0 "'ccmp' YodHiriq bug in Hebrew Script"  {"'ccmp' YodHiriq in Hebrew Script"  } ['ccmp' ('hebr' <'dflt' > ) ]

StartChar: exclam
Encoding: 33 33 1
Width: 398
Flags: W
HStem: -28 218<111.766 285.925> 1210 20G<98 294>
VStem: 90 218<-6.4398 168.719> 157 84<349 563.068>
LayerCount: 2
Fore
SplineSet
199 190 m 0xe0
 263 190 308 139 308 81 c 256
 308 26 265 -28 199 -28 c 0
 134 -28 90 26 90 81 c 256
 90 137 133 190 199 190 c 0xe0
98 1230 m 1
 294 1230 l 1
 241 349 l 1
 157 349 l 1xd0
 98 1230 l 1
EndSplineSet
Validated: 1
EndChar

StartChar: quotedbl
Encoding: 34 34 2
Width: 676
Flags: W
HStem: 785 445<124 157 409 442>
VStem: 90 496
LayerCount: 2
Fore
SplineSet
409 1230 m 1
 586 1230 l 1
 442 785 l 1
 375 785 l 1
 409 1230 l 1
124 1230 m 1
 301 1230 l 1
 157 785 l 1
 90 785 l 1
 124 1230 l 1
EndSplineSet
Validated: 1
EndChar

StartChar: numbersign
Encoding: 35 35 3
Width: 1042
Flags: W
HStem: 0 21G<193 307.481 551 662.5> 316 111<125 249 381 607 737 927> 684 112<123 315 449 673 805 917>
LayerCount: 2
Fore
SplineSet
952 427 m 1
 927 320 l 1
 715 320 l 1
 659 0 l 1
 551 0 l 1
 607 316 l 1
 359 316 l 1
 304 0 l 1
 193 0 l 1
 249 316 l 1
 94 316 l 1
 125 427 l 1
 270 427 l 1
 315 684 l 1
 90 684 l 1
 123 796 l 1
 338 796 l 1
 379 1050 l 1
 489 1050 l 1
 449 796 l 1
 697 796 l 1
 737 1049 l 1
 845 1049 l 1
 805 796 l 1
 952 796 l 1
 917 684 l 1
 781 684 l 1
 737 427 l 1
 952 427 l 1
381 427 m 1
 629 427 l 1
 673 684 l 1
 425 684 l 1
 381 427 l 1
EndSplineSet
Validated: 1
EndChar

StartChar: dollar
Encoding: 36 36 4
Width: 847
Flags: W
HStem: 0 100<222.342 357 453 576.438> 962 88<254.913 357 453 599.604>
VStem: 90 50<252.173 296> 103 129<692.319 936.533> 357 96<-107 0 102 468 645 962 1050 1147> 627 130<147.407 391.409> 638 50<803 870.119>
LayerCount: 2
Fore
SplineSet
757 308 m 0xcc
 757 123 633 0 453 0 c 1
 453 -107 l 1
 357 -107 l 1
 357 0 l 1
 240 0 144 27 90 51 c 1
 90 296 l 1
 140 296 l 1xec
 175 189 l 1
 211 141 278 100 357 100 c 1
 357 494 l 1
 321 517 l 1
 203 560 103 625 103 788 c 0
 103 944 195 1050 357 1050 c 1
 357 1147 l 1
 453 1147 l 1
 453 1050 l 1
 547 1050 642 1028 688 1017 c 1
 688 803 l 1
 638 803 l 1xda
 616 906 l 1
 577 943 497 962 453 962 c 1
 453 620 l 1
 525 594 l 2
 691 533 757 446 757 308 c 0xcc
453 102 m 1
 562 119 627 144 627 265 c 0
 627 385 553 430 453 468 c 1
 453 102 l 1
357 962 m 1
 265 950 232 921 232 828 c 0xd8
 232 717 265 683 357 645 c 1
 357 962 l 1
EndSplineSet
Validated: 1
EndChar

StartChar: percent
Encoding: 37 37 5
Width: 1378
Flags: W
HStem: -13 57<961.512 1114.52> 484 56<260.167 414.163 950.1 1127.97> 993 56<258.042 414.278>
VStem: 90 119<581.957 952.621> 469 119<581.87 952.016> 790 120<82.1483 455.848> 1170 118<86.3371 457.062>
LayerCount: 2
Fore
SplineSet
383 -9 m 1
 262 -9 l 1
 987 1049 l 1
 1109 1049 l 1
 383 -9 l 1
341 1049 m 0
 489 1049 588 970 588 769 c 0
 588 624 538 484 336 484 c 0
 140 484 90 625 90 769 c 0
 90 911 140 1049 341 1049 c 0
336 540 m 256
 416 540 469 591 469 769 c 0
 469 944 416 993 336 993 c 256
 234 993 209 908 209 769 c 0
 209 628 234 540 336 540 c 256
1041 553 m 0
 1211 553 1288 450 1288 272 c 0
 1288 94 1213 -13 1037 -13 c 0
 865 -13 790 94 790 272 c 0
 790 414 841 553 1041 553 c 0
1037 44 m 256
 1117 44 1170 95 1170 272 c 0
 1170 448 1117 496 1037 496 c 256
 935 496 910 411 910 272 c 0
 910 132 935 44 1037 44 c 256
EndSplineSet
Validated: 1
EndChar

StartChar: ampersand
Encoding: 38 38 6
Width: 1311
Flags: W
HStem: 0 66<345.457 651.752 1160.3 1221> 593 40<826 900.411 1102.95 1176> 997 61<408.884 610.149>
VStem: 90 150<151.369 445.47> 227 135<712.193 967.13> 652 135<715.145 967.81>
LayerCount: 2
Fore
SplineSet
513 1058 m 0xec
 749 1058 787 930 787 844 c 0
 787 691 652 634 533 588 c 1
 856 294 l 1
 890 364 935 468 935 572 c 1
 826 593 l 1
 826 633 l 1
 1176 633 l 1
 1176 593 l 1
 1069 572 l 1
 1052 510 1002 355 920 235 c 1
 1095 75 l 1
 1221 56 l 1
 1221 0 l 1
 957 0 l 1
 827 134 l 1
 742 58 636 0 470 0 c 0
 138 0 90 173 90 288 c 0xf4
 90 473 219 537 343 584 c 1
 290 635 227 716 227 834 c 0
 227 924 267 1058 513 1058 c 0xec
240 297 m 0
 240 140 339 66 491 66 c 0
 601 66 694 103 774 183 c 1
 392 533 l 1
 301 494 240 427 240 297 c 0
513 997 m 0
 428 997 362 967 362 850 c 0xec
 362 758 410 689 480 636 c 1
 585 675 652 716 652 850 c 0
 652 948 606 997 513 997 c 0
EndSplineSet
Validated: 1
EndChar

StartChar: quotesingle
Encoding: 39 39 7
Width: 391
Flags: W
HStem: 785 445<124 157>
VStem: 90 211
LayerCount: 2
Fore
SplineSet
124 1230 m 1
 301 1230 l 1
 157 785 l 1
 90 785 l 1
 124 1230 l 1
EndSplineSet
Validated: 1
EndChar

StartChar: parenleft
Encoding: 40 40 8
Width: 654
Flags: W
VStem: 90 174<73.1051 781.745>
LayerCount: 2
Fore
SplineSet
564 -410 m 1
 257 -248 90 -42 90 427 c 256
 90 901 261 1101 564 1261 c 1
 564 1186 l 1
 270 1017 264 659 264 451 c 0
 264 443 264 435 264 427 c 0
 264 28 335 -204 564 -335 c 1
 564 -410 l 1
EndSplineSet
Validated: 1
EndChar

StartChar: parenright
Encoding: 41 41 9
Width: 654
Flags: W
VStem: 390 174<71.293 781.693>
LayerCount: 2
Fore
SplineSet
90 1261 m 1
 396 1098 564 897 564 427 c 256
 564 -48 391 -250 90 -410 c 1
 90 -335 l 1
 319 -204 390 29 390 427 c 0
 390 672 383 1017 90 1186 c 1
 90 1261 l 1
EndSplineSet
Validated: 1
EndChar

StartChar: asterisk
Encoding: 42 42 10
Width: 782
Flags: W
HStem: 441 608 920 20G<128.826 166.487 616.385 653.931>
VStem: 90 602
LayerCount: 2
Fore
SplineSet
90 825 m 1xa0
 137 940 l 1x60
 367 784 l 1
 335 1049 l 1
 449 1049 l 1xa0
 415 784 l 1
 646 940 l 1x60
 692 824 l 1
 450 744 l 1
 692 666 l 1
 646 552 l 1
 415 704 l 1
 449 441 l 1
 335 441 l 1
 367 706 l 1
 137 548 l 1
 90 664 l 1
 329 744 l 1
 90 825 l 1xa0
EndSplineSet
EndChar

StartChar: plus
Encoding: 43 43 11
Width: 1026
Flags: W
HStem: 404 116<90 456 572 936>
VStem: 456 116<37 404 520 888>
LayerCount: 2
Fore
SplineSet
572 37 m 1
 456 37 l 1
 456 404 l 1
 90 404 l 1
 90 520 l 1
 456 520 l 1
 456 888 l 1
 572 888 l 1
 572 520 l 1
 936 520 l 1
 936 404 l 1
 572 404 l 1
 572 37 l 1
EndSplineSet
EndChar

StartChar: comma
Encoding: 44 44 12
Width: 455
Flags: W
HStem: -276 70<90 167.8>
VStem: 249 116<-114.615 95>
LayerCount: 2
Fore
SplineSet
236 198 m 0
 311 198 365 138 365 52 c 0
 365 -151 215 -239 90 -276 c 1
 90 -206 l 1
 156 -185 249 -144 249 -55 c 0
 249 13 127 -4 127 98 c 0
 127 178 191 198 236 198 c 0
EndSplineSet
Validated: 1
EndChar

StartChar: hyphen
Encoding: 45 45 13
Width: 678
Flags: W
HStem: 478 168<60 618>
VStem: 60 558<478 646>
LayerCount: 2
Fore
SplineSet
60 478 m 5
 60 646 l 5
 618 646 l 5
 618 478 l 5
 60 478 l 5
EndSplineSet
EndChar

StartChar: period
Encoding: 46 46 14
Width: 398
Flags: W
HStem: -23 218<111.766 285.925>
VStem: 90 218<-1.4398 173.719>
LayerCount: 2
Fore
SplineSet
199 195 m 0
 263 195 308 143 308 86 c 256
 308 31 265 -23 199 -23 c 0
 134 -23 90 30 90 86 c 256
 90 142 133 195 199 195 c 0
EndSplineSet
Validated: 1
EndChar

StartChar: slash
Encoding: 47 47 15
Width: 737
Flags: W
HStem: 1195 20G<507.122 647>
VStem: 90 557
LayerCount: 2
Fore
SplineSet
225 -18 m 1
 90 -18 l 1
 514 1215 l 1
 647 1215 l 1
 225 -18 l 1
EndSplineSet
Validated: 1
EndChar

StartChar: zero
Encoding: 48 48 16
Width: 989
Flags: W
HStem: 0 71<390.384 596.654> 1172 72<389.981 601.407>
VStem: 108 165<284.135 965.291> 723 166<277.785 963.808>
LayerCount: 2
Fore
SplineSet
500 1244 m 0
 656 1244 889 1163 889 626 c 0
 889 171 731 0 493 0 c 0
 195 0 108 296 108 626 c 0
 108 955 195 1244 500 1244 c 0
493 71 m 0
 677 71 723 303 723 626 c 256
 723 952 677 1172 493 1172 c 0
 317 1172 273 979 273 626 c 256
 273 275 317 71 493 71 c 0
EndSplineSet
Validated: 1
EndChar

StartChar: one
Encoding: 49 49 17
Width: 783
Flags: W
HStem: 0 50<82 156.437 668.969 731> 1210 20G<424.8 506>
VStem: 352 154<102 1070>
LayerCount: 2
Fore
SplineSet
506 102 m 1
 731 50 l 1
 731 0 l 1
 82 0 l 1
 82 50 l 1
 352 102 l 1
 352 1070 l 1
 108 982 l 1
 108 1030 l 1
 460 1230 l 1
 506 1230 l 1
 506 102 l 1
EndSplineSet
Validated: 1
EndChar

StartChar: two
Encoding: 50 50 18
Width: 971
Flags: W
HStem: 0 139<235 856> 950 21G<158 221.189> 1146 75<269.715 577.964>
VStem: 158 59<950 1018.44> 662 171<708.964 1072.33>
LayerCount: 2
Fore
SplineSet
436 1221 m 0
 779 1221 833 1032 833 906 c 0
 833 692 699 552 551 418 c 1
 235 139 l 1
 856 139 l 1
 856 0 l 1
 117 0 l 1
 117 133 l 1
 421 410 l 1
 598 580 662 696 662 906 c 0
 662 1098 560 1146 436 1146 c 0
 361 1146 289 1121 248 1098 c 1
 217 950 l 1
 158 950 l 1
 158 1182 l 1
 314 1220 380 1221 436 1221 c 0
EndSplineSet
Validated: 1
EndChar

StartChar: three
Encoding: 51 51 19
Width: 992
Flags: W
HStem: -18 74<262.231 623.855> 586 89<348 588.871> 949 21G<172 236.189> 1145 75<287.235 597.6>
VStem: 135 60<213.43 274> 172 60<949 1017.44> 675 167<755.365 1076.47> 731 166<153.51 496.832>
LayerCount: 2
Fore
SplineSet
578 632 m 1xf6
 769 610 897 529 897 328 c 0
 897 83 706 -18 469 -18 c 0
 340 -18 224 1 145 20 c 1
 135 274 l 1
 195 274 l 1
 235 105 l 1
 278 81 374 56 455 56 c 0
 673 56 731 168 731 337 c 0xf9
 731 509 636 578 476 586 c 2
 348 593 l 1
 348 667 l 1
 476 675 l 1
 617 682 675 763 675 912 c 0
 675 1072 610 1145 455 1145 c 0
 377 1145 303 1119 263 1097 c 1
 232 949 l 1
 172 949 l 1
 172 1182 l 1
 262 1205 342 1220 455 1220 c 0
 684 1220 842 1142 842 923 c 0
 842 748 737 655 578 632 c 1xf6
EndSplineSet
Validated: 1
EndChar

StartChar: four
Encoding: 52 52 20
Width: 997
Flags: W
HStem: 0 21G<598 753> 266 129<161 598 753 916> 1194 20G<634.773 753>
VStem: 598 155<0 266 395 1002>
LayerCount: 2
Fore
SplineSet
753 266 m 1
 753 0 l 1
 598 0 l 1
 598 266 l 1
 60 266 l 1
 60 386 l 1
 649 1214 l 1
 753 1214 l 1
 753 395 l 1
 916 395 l 1
 916 266 l 1
 753 266 l 1
598 1002 m 1
 593 1002 l 1
 161 395 l 1
 598 395 l 1
 598 1002 l 1
EndSplineSet
Validated: 1
EndChar

StartChar: five
Encoding: 53 53 21
Width: 954
Flags: W
HStem: -18 74<252.498 598.235> 629 76<253.381 601.985> 1091 139<251 782>
VStem: 129 60<213.072 274> 170 81<683 1091> 706 166<162.74 540.098>
LayerCount: 2
Fore
SplineSet
251 683 m 1xec
 332 701 407 705 459 705 c 0
 767 705 872 566 872 358 c 0
 872 99 699 -18 444 -18 c 0
 330 -18 219 -6 129 20 c 1
 129 274 l 1
 189 274 l 1xf4
 229 104 l 1
 280 76 362 56 430 56 c 0
 651 56 706 171 706 349 c 0
 706 540 647 629 416 629 c 0
 368 629 318 624 256 607 c 1
 170 607 l 1
 170 1230 l 1
 782 1230 l 1
 782 1091 l 1
 251 1091 l 1
 251 683 l 1xec
EndSplineSet
Validated: 1
EndChar

StartChar: six
Encoding: 54 54 22
Width: 983
Flags: W
HStem: -18 71<408.03 638.271> 636 86<347.768 654.733> 1145 75<429.403 716.279>
VStem: 103 165<278.578 603.371 645 888.432> 724 166<158.187 564.545> 757 59<981 1034.43>
LayerCount: 2
Fore
SplineSet
564 722 m 256xf8
 721 722 890 653 890 374 c 0xf8
 890 133 769 -18 521 -18 c 0
 354 -18 103 71 103 596 c 0
 103 1095 374 1220 555 1220 c 0
 644 1220 744 1206 816 1189 c 1
 816 981 l 1
 757 981 l 1xf4
 724 1104 l 1
 691 1122 618 1145 555 1145 c 0
 440 1145 269 1068 269 645 c 1
 335 680 446 722 564 722 c 256xf8
268 591 m 1
 268 190 368 53 518 53 c 0
 683 53 724 172 724 357 c 0
 724 577 646 636 530 636 c 0
 436 636 346 616 268 591 c 1
EndSplineSet
Validated: 1
EndChar

StartChar: seven
Encoding: 55 55 23
Width: 929
Flags: W
HStem: 0 21G<187 312.402> 1069 161<185 716>
VStem: 90 64<922 989.98>
LayerCount: 2
Fore
SplineSet
154 922 m 1
 90 922 l 1
 90 1230 l 1
 838 1230 l 1
 838 1138 l 1
 303 0 l 1
 187 0 l 1
 716 1069 l 1
 185 1069 l 1
 154 922 l 1
EndSplineSet
Validated: 1
EndChar

StartChar: eight
Encoding: 56 56 24
Width: 1001
Flags: W
HStem: -18 71<361.396 642.086> 600 79<376.321 630.89> 1154 72<382.92 620.034>
VStem: 114 162<132.464 503.317> 151 162<752.144 1085.52> 697 162<752.55 1087.66> 734 162<132.635 502.812>
LayerCount: 2
Fore
SplineSet
507 1226 m 0xe8
 715 1226 859 1127 859 913 c 0xec
 859 749 756 673 681 640 c 1
 781 603 896 514 896 326 c 0
 896 51 711 -18 500 -18 c 0
 254 -18 114 85 114 326 c 0xf2
 114 514 226 602 328 640 c 1
 256 673 151 749 151 913 c 0
 151 1074 238 1226 507 1226 c 0xe8
500 53 m 0
 687 53 734 164 734 326 c 0
 734 505 673 600 500 600 c 0
 327 600 276 508 276 326 c 0xf2
 276 151 321 53 500 53 c 0
501 679 m 256
 647 679 697 763 697 913 c 0
 697 1059 647 1154 501 1154 c 256
 357 1154 313 1059 313 913 c 0xec
 313 761 358 679 501 679 c 256
EndSplineSet
Validated: 1
EndChar

StartChar: nine
Encoding: 57 57 25
Width: 1000
Flags: W
HStem: -18 74<254.351 566.225> 479 87<358.092 667.803> 1148 72<379.896 612.925>
VStem: 116 165<647.385 1039.16> 163 59<161.344 221> 736 166<302.028 555 598.415 956.279>
LayerCount: 2
Fore
SplineSet
458 479 m 0xec
 296 479 116 564 116 839 c 0xf4
 116 1088 266 1220 504 1220 c 0
 743 1220 902 1081 902 606 c 0
 902 79 620 -18 432 -18 c 0
 325 -18 241 -7 163 12 c 1
 163 221 l 1
 222 221 l 1
 253 92 l 1
 285 77 350 56 429 56 c 0
 552 56 736 127 736 555 c 1
 662 514 569 479 458 479 c 0xec
736 614 m 1
 736 1032 645 1148 506 1148 c 0
 371 1148 281 1064 281 835 c 0
 281 630 370 566 503 566 c 0
 591 566 669 587 736 614 c 1
EndSplineSet
Validated: 1
EndChar

StartChar: colon
Encoding: 58 58 26
Width: 397
Flags: W
HStem: 0 219<112.61 284.067> 642 218<112.075 285.618>
VStem: 90 217<22.2373 198.057 662.723 838.44>
LayerCount: 2
Fore
SplineSet
198 219 m 0
 262 219 307 168 307 111 c 256
 307 56 264 0 199 0 c 0
 134 0 90 55 90 111 c 256
 90 167 132 219 198 219 c 0
199 860 m 0
 264 860 307 806 307 751 c 0
 307 686 255 642 199 642 c 0
 135 642 90 693 90 751 c 0
 90 806 133 860 199 860 c 0
EndSplineSet
Validated: 1
EndChar

StartChar: semicolon
Encoding: 59 59 27
Width: 456
Flags: W
HStem: -276 70<90 167.907> 642 218<161.842 335.385>
VStem: 127 239<24.0768 164.542 674.375 828.015> 250 116<-114.838 95.5>
LayerCount: 2
Fore
SplineSet
250 860 m 0xd0
 315 860 356 806 356 751 c 0
 356 686 306 642 250 642 c 0
 186 642 139 692 139 751 c 0
 139 806 184 860 250 860 c 0xd0
236 198 m 0
 312 198 366 139 366 52 c 0xe0
 366 -152 215 -239 90 -276 c 1
 90 -206 l 1
 156 -185 250 -144 250 -55 c 0xd0
 250 13 127 -4 127 98 c 0xe0
 127 178 192 198 236 198 c 0
EndSplineSet
Validated: 1
EndChar

StartChar: less
Encoding: 60 60 28
Width: 1031
Flags: W
LayerCount: 2
Fore
SplineSet
941 876 m 1
 941 751 l 1
 336 520 l 1
 941 282 l 1
 941 158 l 1
 90 502 l 1
 90 539 l 1
 941 876 l 1
EndSplineSet
Validated: 1
EndChar

StartChar: equal
Encoding: 61 61 29
Width: 1026
Flags: W
HStem: 390 117<90 936> 701 117<90 936>
LayerCount: 2
Fore
SplineSet
90 818 m 1
 936 818 l 1
 936 701 l 1
 90 701 l 1
 90 818 l 1
90 507 m 1
 936 507 l 1
 936 390 l 1
 90 390 l 1
 90 507 l 1
EndSplineSet
EndChar

StartChar: greater
Encoding: 62 62 30
Width: 1031
Flags: W
LayerCount: 2
Fore
SplineSet
90 876 m 1
 941 539 l 1
 941 502 l 1
 90 158 l 1
 90 282 l 1
 695 520 l 1
 90 751 l 1
 90 876 l 1
EndSplineSet
Validated: 1
EndChar

StartChar: question
Encoding: 63 63 31
Width: 827
Flags: W
HStem: -18 216<247.766 421.309> 1110 110<179.928 525.416>
VStem: 90 59<952 1008.36> 226 217<3.5602 177.396> 305 86<314 427.913> 571 166<721.286 1068.53>
LayerCount: 2
Fore
SplineSet
355 1220 m 0xec
 588 1220 737 1132 737 914 c 0
 737 693 611 593 454 560 c 1
 415 551 l 1
 391 314 l 1
 305 314 l 1
 268 608 l 1
 424 641 l 1
 537 663 571 760 571 903 c 0
 571 1085 507 1110 353 1110 c 0
 283 1110 223 1093 178 1066 c 1
 149 952 l 1
 90 952 l 1
 90 1181 l 1
 167 1202 249 1220 355 1220 c 0xec
335 198 m 0
 399 198 443 147 443 91 c 256
 443 36 400 -18 335 -18 c 0
 270 -18 226 35 226 91 c 256xf4
 226 147 269 198 335 198 c 0
EndSplineSet
Validated: 1
EndChar

StartChar: at
Encoding: 64 64 32
Width: 1343
Flags: W
HStem: -355 93<304.024 695.415> 9 147<821.5 993.664> 582 134<607.446 807.093> 1020 81<659.208 1040.81>
VStem: 90 91<-108.227 455.898> 329 161<139.03 443.172> 755 167<156.108 231> 1174 79<402.845 886.696>
LayerCount: 2
Fore
SplineSet
329 214 m 0
 329 398 417 716 769 716 c 0
 835 716 915 706 1007 687 c 1
 946 414 922 250 922 193 c 0
 922 165 940 156 972 156 c 0
 1053 156 1174 380 1174 652 c 0
 1174 801 1158 895 1068 964 c 0
 1019 1001 956 1020 877 1020 c 0
 628 1020 461 887 342 706 c 0
 236 544 181 364 181 163 c 0
 181 87 188 -104 279 -197 c 0
 322 -240 382 -262 461 -262 c 0
 564 -262 739 -231 874 -126 c 1
 874 -217 l 1
 769 -292 621 -355 452 -355 c 0
 310 -355 125 -284 96 23 c 0
 92 67 90 110 90 152 c 0
 90 730 480 1101 885 1101 c 0
 1082 1101 1229 984 1248 782 c 0
 1251 746 1253 711 1253 677 c 0
 1253 369 1098 9 855 9 c 0
 788 9 755 42 755 127 c 0
 755 156 759 190 768 231 c 1
 755 231 l 1
 718 150 643 -24 475 -24 c 0
 387 -24 329 35 329 214 c 0
728 582 m 0
 538 582 490 344 490 239 c 0
 490 191 492 167 514 145 c 0
 527 131 543 126 560 127 c 0
 633 133 707 192 755 310 c 0
 786 386 796 476 808 571 c 1
 778 579 752 582 728 582 c 0
EndSplineSet
Validated: 1
EndChar

StartChar: A
Encoding: 65 65 33
Width: 1350
Flags: W
HStem: 0 48<0 77.4144 302.103 395 788 880.897 1210.26 1298> 421 81<382 802> 1197 20G<538.815 724.483>
LayerCount: 2
Fore
SplineSet
395 48 m 1
 395 0 l 1
 0 0 l 1
 0 48 l 1
 135 73 l 1
 546 1217 l 1
 717 1217 l 1
 1145 73 l 1
 1298 48 l 1
 1298 0 l 1
 788 0 l 1
 788 48 l 1
 950 73 l 1
 830 421 l 1
 355 421 l 1
 233 73 l 1
 395 48 l 1
589 1088 m 1
 382 502 l 1
 802 502 l 1
 589 1088 l 1
EndSplineSet
Validated: 1
EndChar

StartChar: B
Encoding: 66 66 34
Width: 1240
Flags: W
HStem: -6 81<185.854 232 406 860.391> 0 47<77 165.883> 588 81<406 786.354> 1126 81<164.664 232 406 795.559> 1159 48<77 173.612>
VStem: 232 174<81 588 669 1126> 886 185<771.696 1049.99> 977 187<179.16 489.982>
LayerCount: 2
Fore
SplineSet
603 669 m 2x36
 822 669 886 763 886 914 c 0
 886 1083 766 1126 592 1126 c 2
 406 1126 l 1
 406 669 l 1
 603 669 l 2x36
670 75 m 0xa5
 900 75 977 183 977 344 c 0
 977 490 901 588 622 588 c 2
 406 588 l 1
 406 81 l 1
 490 77 581 75 670 75 c 0xa5
693 -6 m 0
 500 -6 462 0 308 0 c 2
 77 0 l 1
 77 47 l 1
 232 72 l 1
 232 1136 l 1
 77 1159 l 1
 77 1207 l 1x6d
 629 1207 l 2
 884 1207 1071 1150 1071 923 c 0x36
 1071 756 949 670 823 642 c 1
 1021 622 1164 524 1164 347 c 0
 1164 206 1102 -6 693 -6 c 0
EndSplineSet
Validated: 1
EndChar

StartChar: C
Encoding: 67 67 35
Width: 1287
Flags: W
HStem: -18 69<540.746 945.659> 1148 72<528.925 948.915>
VStem: 99 189<325.888 874.826> 1074 60<911 993.83> 1093 59<243.804 322>
LayerCount: 2
Fore
SplineSet
288 591 m 0xf0
 288 126 548 51 722 51 c 0
 892 51 1009 103 1060 142 c 1
 1093 322 l 1
 1152 322 l 1xe8
 1146 38 l 1
 1044 9 891 -18 720 -18 c 0
 341 -18 99 194 99 589 c 0
 99 1003 309 1220 724 1220 c 0
 845 1220 970 1208 1128 1174 c 1
 1134 911 l 1
 1074 911 l 1
 1047 1067 l 1
 941 1132 810 1148 731 1148 c 0
 465 1148 288 1021 288 591 c 0xf0
EndSplineSet
Validated: 1
EndChar

StartChar: D
Encoding: 68 68 36
Width: 1376
Flags: W
HStem: -4 81<192.79 232 405 867.445> 0 48<77 169.587> 1126 81<164.664 232 405 801.105> 1159 48<77 173.612>
VStem: 232 173<84 1126> 1093 188<330.838 852.35>
LayerCount: 2
Fore
SplineSet
662 77 m 0xac
 921 77 1093 204 1093 612 c 256
 1093 1023 820 1126 567 1126 c 2
 405 1126 l 1
 405 84 l 1
 431 83 559 77 662 77 c 0xac
662 -4 m 0
 481 -4 367 0 232 0 c 2
 77 0 l 1
 77 48 l 1
 232 72 l 1
 232 1136 l 1
 77 1159 l 1
 77 1207 l 1x5c
 625 1207 l 2
 1045 1207 1281 1031 1281 610 c 0
 1281 301 1157 -4 662 -4 c 0
EndSplineSet
Validated: 1
EndChar

StartChar: E
Encoding: 69 69 37
Width: 1176
Flags: W
HStem: 0 81<405 944.143> 0 48<77 168.989> 573 81<405 731> 1126 81<405 892.597> 1159 48<77 172.989>
VStem: 231 174<81 573 654 1126> 759 57<428 502.24 724.272 798> 923 59<918 1014.4> 998 59<256.034 319>
LayerCount: 2
Fore
SplineSet
77 48 m 1x6780
 231 72 l 1
 231 1136 l 1
 77 1159 l 1
 77 1207 l 1
 982 1207 l 1x6f80
 982 918 l 1
 923 918 l 1
 894 1113 l 1
 865 1117 777 1126 602 1126 c 2
 405 1126 l 1
 405 654 l 1
 731 654 l 1
 759 798 l 1
 816 798 l 1
 816 428 l 1
 759 428 l 1
 731 573 l 1
 405 573 l 1
 405 81 l 1
 643 81 l 2xb780
 703 81 888 84 947 95 c 1
 998 319 l 1
 1057 319 l 1
 1040 0 l 1
 77 0 l 1
 77 48 l 1x6780
EndSplineSet
Validated: 1
EndChar

StartChar: F
Encoding: 70 70 38
Width: 1079
Flags: W
HStem: 0 48<82 167.419 479.533 599> 542 81<399 754> 1126 81<399 885.643> 1159 48<70 166.612>
VStem: 225 174<72 542 623 1126> 782 55<396 470.752 693.272 767> 916 60<918 1014.4>
LayerCount: 2
Fore
SplineSet
399 542 m 1xee
 399 72 l 1
 599 48 l 1
 599 0 l 1
 82 0 l 1
 82 48 l 1
 225 72 l 1
 225 1136 l 1
 70 1159 l 1
 70 1207 l 1
 976 1207 l 1xde
 976 918 l 1
 916 918 l 1
 887 1113 l 1
 859 1117 771 1126 596 1126 c 2
 399 1126 l 1
 399 623 l 1
 754 623 l 1
 782 767 l 1
 837 767 l 1
 837 396 l 1
 782 396 l 1
 754 542 l 1
 399 542 l 1xee
EndSplineSet
Validated: 1
EndChar

StartChar: G
Encoding: 71 71 39
Width: 1349
Flags: W
HStem: -18 69<537.899 937.527> 479 48<852 944.587 1227.11 1297> 1148 72<531.904 948.804>
VStem: 100 188<331.19 869.874> 1007 173<92.3899 455> 1088 60<907 992.443>
LayerCount: 2
Fore
SplineSet
722 51 m 0xf4
 836 51 959 85 1007 112 c 1
 1007 455 l 1
 852 479 l 1
 852 527 l 1
 1297 527 l 1
 1297 479 l 1
 1180 455 l 1
 1180 63 l 1xf8
 946 -14 798 -18 738 -18 c 0
 731 -18 726 -18 721 -18 c 0
 341 -18 100 191 100 589 c 0
 100 1094 406 1220 724 1220 c 0
 882 1220 1022 1199 1148 1166 c 1
 1148 907 l 1
 1088 907 l 1
 1063 1056 l 1
 985 1112 867 1148 731 1148 c 0
 465 1148 288 1017 288 591 c 0
 288 120 548 51 722 51 c 0xf4
EndSplineSet
Validated: 1
EndChar

StartChar: H
Encoding: 72 72 40
Width: 1392
Flags: W
HStem: 0 48<77 169.587 468.011 560 819 910.989 1208.41 1301> 581 81<406 973> 1159 48<77 173.612 464.011 560 819 914.989 1204.39 1301>
VStem: 232 174<72 581 662 1136> 973 173<72 581 662 1136>
LayerCount: 2
Fore
SplineSet
77 0 m 1
 77 48 l 1
 232 72 l 1
 232 1136 l 1
 77 1159 l 1
 77 1207 l 1
 560 1207 l 1
 560 1159 l 1
 406 1136 l 1
 406 662 l 1
 973 662 l 1
 973 1136 l 1
 819 1159 l 1
 819 1207 l 1
 1301 1207 l 1
 1301 1159 l 1
 1146 1136 l 1
 1146 72 l 1
 1301 48 l 1
 1301 0 l 1
 819 0 l 1
 819 48 l 1
 973 72 l 1
 973 581 l 1
 406 581 l 1
 406 72 l 1
 560 48 l 1
 560 0 l 1
 77 0 l 1
EndSplineSet
Validated: 1
EndChar

StartChar: I
Encoding: 73 73 41
Width: 650
Flags: W
HStem: 0 48<77 169.587 466.413 559> 1159 48<77 173.612 462.388 559>
VStem: 232 172<72 1136>
LayerCount: 2
Fore
SplineSet
404 72 m 1
 559 48 l 1
 559 0 l 1
 77 0 l 1
 77 48 l 1
 232 72 l 1
 232 1136 l 1
 77 1159 l 1
 77 1207 l 1
 559 1207 l 1
 559 1159 l 1
 404 1136 l 1
 404 72 l 1
EndSplineSet
Validated: 1
EndChar

StartChar: J
Encoding: 74 74 42
Width: 816
Flags: W
HStem: -19 77<179.575 377.774> 1158 49<261 357.612 640.231 725>
VStem: 86 59<161.63 228> 416 173<160.346 1135>
LayerCount: 2
Fore
SplineSet
272 -19 m 0
 244 -19 154 -18 86 8 c 1
 86 228 l 1
 145 228 l 1
 172 103 l 1
 186 86 222 58 290 58 c 0
 374 58 416 115 416 229 c 2
 416 1135 l 1
 261 1158 l 1
 261 1207 l 1
 725 1207 l 1
 725 1158 l 1
 589 1135 l 1
 589 388 l 2
 589 67 399 -19 272 -19 c 0
EndSplineSet
Validated: 1
EndChar

StartChar: K
Encoding: 75 75 43
Width: 1388
Flags: W
HStem: 0 48<77 169.587 474.661 578 1258.35 1336> 1159 48<77 173.612 463.388 560 864 938.173 1154.74 1242>
VStem: 232 173<72 480 567 1136>
LayerCount: 2
Fore
SplineSet
1242 1207 m 1
 1242 1159 l 1
 1102 1136 l 1
 690 733 l 1
 1206 72 l 1
 1336 48 l 1
 1336 0 l 1
 1041 0 l 1
 568 610 l 1
 405 480 l 1
 405 72 l 1
 578 48 l 1
 578 0 l 1
 77 0 l 1
 77 48 l 1
 232 72 l 1
 232 1136 l 1
 77 1159 l 1
 77 1207 l 1
 560 1207 l 1
 560 1159 l 1
 405 1136 l 1
 405 567 l 1
 983 1136 l 1
 864 1159 l 1
 864 1207 l 1
 1242 1207 l 1
EndSplineSet
Validated: 1
EndChar

StartChar: L
Encoding: 76 76 44
Width: 1131
Flags: W
HStem: 0 77<406 923.692> 0 48<77 169.587> 1159 48<77 173.612 476.065 592>
VStem: 232 174<77 1136> 981 59<282.488 347>
LayerCount: 2
Fore
SplineSet
592 1159 m 1x78
 406 1136 l 1
 406 77 l 1
 644 77 l 2xb8
 813 77 898 90 925 95 c 1
 981 347 l 1
 1040 347 l 1
 1023 0 l 1
 77 0 l 1
 77 48 l 1
 232 72 l 1
 232 1136 l 1
 77 1159 l 1
 77 1207 l 1
 592 1207 l 1
 592 1159 l 1x78
EndSplineSet
Validated: 1
EndChar

StartChar: M
Encoding: 77 77 45
Width: 1700
Flags: W
HStem: 0 48<77 169.587 391.232 488 1119 1215.77 1516.41 1609> 1159 48<77 173.612 1512.39 1609>
VStem: 232 94<72 1038> 1281 173<72 1038>
LayerCount: 2
Fore
SplineSet
800 0 m 1
 768 0 l 1
 326 1038 l 1
 326 72 l 1
 488 48 l 1
 488 0 l 1
 77 0 l 1
 77 48 l 1
 232 72 l 1
 232 1136 l 1
 77 1159 l 1
 77 1207 l 1
 443 1207 l 1
 835 289 l 1
 1263 1207 l 1
 1609 1207 l 1
 1609 1159 l 1
 1454 1136 l 1
 1454 72 l 1
 1609 48 l 1
 1609 0 l 1
 1119 0 l 1
 1119 48 l 1
 1281 72 l 1
 1281 1038 l 1
 800 0 l 1
EndSplineSet
Validated: 1
EndChar

StartChar: N
Encoding: 78 78 46
Width: 1403
Flags: W
HStem: 0 48<77 168.989 391.232 488> 1159 48<77 172.989 901 1001.98 1216.01 1312>
VStem: 231 95<72 1085> 1063 95<313 1136>
LayerCount: 2
Fore
SplineSet
1063 1136 m 1
 901 1159 l 1
 901 1207 l 1
 1312 1207 l 1
 1312 1159 l 1
 1158 1136 l 1
 1158 0 l 1
 1070 0 l 1
 326 1085 l 1
 326 72 l 1
 488 48 l 1
 488 0 l 1
 77 0 l 1
 77 48 l 1
 231 72 l 1
 231 1136 l 1
 77 1159 l 1
 77 1207 l 1
 442 1207 l 1
 1063 313 l 1
 1063 1136 l 1
EndSplineSet
Validated: 1
EndChar

StartChar: O
Encoding: 79 79 47
Width: 1378
Flags: W
HStem: -18 71<515.096 867.413> 1148 72<506.505 873.528>
VStem: 102 188<325.457 892.377> 1093 188<325.457 889.423>
LayerCount: 2
Fore
SplineSet
691 1148 m 256
 439 1148 290 1022 290 605 c 0
 290 282 372 53 691 53 c 256
 1011 53 1093 282 1093 605 c 0
 1093 928 1010 1148 691 1148 c 256
691 -18 m 256
 402 -18 102 106 102 605 c 256
 102 1097 384 1220 691 1220 c 0
 987 1220 1281 1097 1281 605 c 256
 1281 106 981 -18 691 -18 c 256
EndSplineSet
Validated: 1
EndChar

StartChar: P
Encoding: 80 80 48
Width: 1064
Flags: W
HStem: 0 48<82 167.419 475.312 590> 473 81<398 673.528> 1126 81<157.664 225 398 681.394> 1159 48<70 166.612>
VStem: 225 173<72 473 554 1126> 789 179<659.849 1028.67>
LayerCount: 2
Fore
SplineSet
492 554 m 2xec
 718 554 789 665 789 850 c 0
 789 1050 701 1126 487 1126 c 2
 398 1126 l 1
 398 554 l 1
 492 554 l 2xec
968 851 m 0
 968 657 868 473 534 473 c 2
 398 473 l 1
 398 72 l 1
 590 48 l 1
 590 0 l 1
 82 0 l 1
 82 48 l 1
 225 72 l 1
 225 1136 l 1
 70 1159 l 1
 70 1207 l 1xdc
 525 1207 l 2
 755 1207 968 1136 968 851 c 0
EndSplineSet
Validated: 1
EndChar

StartChar: Q
Encoding: 81 81 49
Width: 1417
Flags: W
HStem: -315 89<1142.44 1325.2> -34 71<515.394 777.347> 1133 74<504.265 880.534>
VStem: 102 188<308.455 874.134> 1094 188<305.956 872.561>
LayerCount: 2
Fore
SplineSet
692 1133 m 256
 373 1133 290 910 290 587 c 0
 290 265 372 37 692 37 c 256
 1011 37 1094 264 1094 587 c 0
 1094 910 1010 1133 692 1133 c 256
692 -34 m 0
 401 -34 102 90 102 587 c 256
 102 991 291 1207 692 1207 c 0
 986 1207 1282 1081 1282 587 c 0
 1282 288 1173 100 962 14 c 1
 1007 -42 l 2
 1090 -146 1168 -226 1252 -226 c 0
 1256 -226 1262 -225 1269 -225 c 2
 1312 -223 l 2
 1318 -223 1323 -222 1326 -222 c 1
 1326 -281 l 1
 1310 -288 1220 -315 1149 -315 c 0
 1008 -315 937 -243 804 -77 c 1
 767 -30 l 1
 752 -32 729 -34 692 -34 c 0
EndSplineSet
Validated: 1
EndChar

StartChar: R
Encoding: 82 82 50
Width: 1296
Flags: W
HStem: 0 48<82 167.419 472.285 581 1165.75 1244> 529 81<399 616> 1126 81<157.664 225 399 759.994> 1159 48<70 166.612>
VStem: 225 174<72 529 610 1126> 855 179<709.114 1040.56>
LayerCount: 2
Fore
SplineSet
1034 885 m 0xec
 1034 699 916 593 787 554 c 1
 1113 72 l 1
 1244 48 l 1
 1244 0 l 1
 955 0 l 1
 616 529 l 1
 399 529 l 1
 399 72 l 1
 581 48 l 1
 581 0 l 1
 82 0 l 1
 82 48 l 1
 225 72 l 1
 225 1136 l 1
 70 1159 l 1
 70 1207 l 1xdc
 591 1207 l 2
 936 1207 1034 1078 1034 885 c 0xec
558 610 m 2
 769 610 855 679 855 872 c 0
 855 1067 763 1126 553 1126 c 2
 399 1126 l 1xec
 399 610 l 1
 558 610 l 2
EndSplineSet
Validated: 1
EndChar

StartChar: S
Encoding: 83 83 51
Width: 1025
Flags: HW
HStem: -18 73<332.857 654.316> 1145 75<377.223 717.212>
VStem: 135 60<251.976 325> 137 149<843.274 1071.12> 769 153<157.529 426.805> 801 58<930 996.304>
LayerCount: 2
Fore
SplineSet
506 -18 m 0xd8
 375 -18 237 6 137 46 c 1
 137 325 l 1
 195 325 l 1
 227 162 l 1
 272 105 397 55 502 55 c 0
 702 55 769 177 769 297 c 0xe8
 769 346 763 455 569 525 c 1
 452 566 l 2
 292 621 135 689 135 912 c 0
 135 1136 330 1220 542 1220 c 0
 606 1220 704 1217 859 1182 c 1
 859 930 l 1
 801 930 l 1xd4
 769 1078 l 1
 717 1116 639 1145 542 1145 c 0
 333 1145 286 1034 286 960 c 0
 286 909 298 815 487 750 c 2
 604 709 l 2
 766 651 922 576 922 348 c 0
 922 160 822 -18 506 -18 c 0xd8
EndSplineSet
Validated: 1
EndChar

StartChar: T
Encoding: 84 84 52
Width: 1239
Flags: W
HStem: 0 48<330 444.688 772.909 887> 1130 77<167.298 522 696 1054.52>
VStem: 80 60<923 1031.38> 522 174<72 1130> 1081 61<923 1031.38>
LayerCount: 2
Fore
SplineSet
330 0 m 1
 330 48 l 1
 522 72 l 1
 522 1130 l 1
 476 1130 l 2
 327 1130 213 1122 165 1112 c 1
 140 923 l 1
 80 923 l 1
 80 1207 l 1
 1142 1207 l 1
 1142 923 l 1
 1081 923 l 1
 1056 1112 l 1
 1026 1118 898 1130 740 1130 c 2
 696 1130 l 1
 696 72 l 1
 887 48 l 1
 887 0 l 1
 330 0 l 1
EndSplineSet
Validated: 1
EndChar

StartChar: U
Encoding: 85 85 53
Width: 1367
Flags: W
HStem: -19 101<484.253 877.537> 1158 49<23 118.989 408.388 505 865 965.975 1180.01 1276>
VStem: 177 173<214.55 1135> 1027 95<226.184 1135>
LayerCount: 2
Fore
SplineSet
670 82 m 0
 893 82 1027 184 1027 407 c 2
 1027 1135 l 1
 865 1158 l 1
 865 1207 l 1
 1276 1207 l 1
 1276 1158 l 1
 1122 1135 l 1
 1122 414 l 2
 1122 196 1028 -19 656 -19 c 0
 282 -19 177 183 177 397 c 2
 177 1135 l 1
 23 1158 l 1
 23 1207 l 1
 505 1207 l 1
 505 1158 l 1
 350 1135 l 1
 350 410 l 2
 350 243 414 82 670 82 c 0
EndSplineSet
Validated: 1
EndChar

StartChar: V
Encoding: 86 86 54
Width: 1350
Flags: W
HStem: 1158 49<-30 51.2373 360.232 457 867 961.379 1180.15 1259>
LayerCount: 2
Fore
SplineSet
1259 1207 m 1
 1259 1158 l 1
 1127 1134 l 1
 642 -29 l 1
 596 -29 l 1
 106 1134 l 1
 -30 1158 l 1
 -30 1207 l 1
 457 1207 l 1
 457 1158 l 1
 295 1134 l 1
 661 246 l 1
 1025 1134 l 1
 867 1158 l 1
 867 1207 l 1
 1259 1207 l 1
EndSplineSet
Validated: 1
EndChar

StartChar: W
Encoding: 87 87 55
Width: 1816
Flags: W
HStem: 1158 49<-10 53.3173 345.272 451 1325 1437.3 1661.68 1725>
LayerCount: 2
Fore
SplineSet
1619 1134 m 1
 1225 -29 l 1
 1177 -29 l 1
 864 802 l 1
 543 -29 l 1
 495 -29 l 1
 96 1134 l 1
 -10 1158 l 1
 -10 1207 l 1
 451 1207 l 1
 451 1158 l 1
 274 1134 l 1
 561 284 l 1
 886 1121 l 1
 926 1121 l 1
 1240 284 l 1
 1513 1134 l 1
 1325 1158 l 1
 1325 1207 l 1
 1725 1207 l 1
 1725 1158 l 1
 1619 1134 l 1
EndSplineSet
Validated: 1
EndChar

StartChar: X
Encoding: 88 88 56
Width: 1357
Flags: W
HStem: 0 48<48 127.445 352.997 442 807 898.392 1223.17 1305> 1159 48<105 189.769 507.634 603 831 923.872 1143.1 1226>
LayerCount: 2
Fore
SplineSet
293 72 m 1
 442 48 l 1
 442 0 l 1
 48 0 l 1
 48 48 l 1
 181 72 l 1
 591 617 l 1
 241 1136 l 1
 105 1159 l 1
 105 1207 l 1
 603 1207 l 1
 603 1159 l 1
 450 1136 l 1
 700 763 l 1
 980 1136 l 1
 831 1159 l 1
 831 1207 l 1
 1226 1207 l 1
 1226 1159 l 1
 1093 1136 l 1
 753 684 l 1
 1168 72 l 1
 1305 48 l 1
 1305 0 l 1
 807 0 l 1
 807 48 l 1
 960 72 l 1
 644 540 l 1
 293 72 l 1
EndSplineSet
Validated: 1
EndChar

StartChar: Y
Encoding: 89 89 57
Width: 1314
Flags: W
HStem: 0 48<327 441.688 769.909 884> 1159 48<-41 43.7694 369.025 470 830 925.366 1140.1 1223>
VStem: 519 174<72 470>
LayerCount: 2
Fore
SplineSet
693 475 m 1
 693 72 l 1
 884 48 l 1
 884 0 l 1
 327 0 l 1
 327 48 l 1
 519 72 l 1
 519 470 l 1
 95 1136 l 1
 -41 1159 l 1
 -41 1207 l 1
 470 1207 l 1
 470 1159 l 1
 308 1136 l 1
 654 579 l 1
 983 1136 l 1
 830 1159 l 1
 830 1207 l 1
 1223 1207 l 1
 1223 1159 l 1
 1090 1136 l 1
 693 475 l 1
EndSplineSet
Validated: 1
EndChar

StartChar: Z
Encoding: 90 90 58
Width: 1150
Flags: W
HStem: 0 76<298 919.966> 1130 77<250.34 779>
VStem: 158 62<922 1019.28> 976 63<273.517 336>
LayerCount: 2
Fore
SplineSet
102 85 m 1
 779 1130 l 1
 554 1130 l 2
 405 1130 297 1122 248 1112 c 1
 220 922 l 1
 158 922 l 1
 158 1207 l 1
 980 1207 l 1
 980 1130 l 1
 298 76 l 1
 559 76 l 2
 686 76 860 91 923 105 c 1
 976 336 l 1
 1039 336 l 1
 1015 0 l 1
 102 0 l 1
 102 85 l 1
EndSplineSet
Validated: 1
EndChar

StartChar: bracketleft
Encoding: 91 91 59
Width: 590
Flags: W
HStem: -256 42<396.548 500> 1227 42<396.548 500>
VStem: 90 143<-177 1190>
LayerCount: 2
Fore
SplineSet
90 -256 m 1
 90 1269 l 1
 500 1269 l 1
 500 1227 l 1
 233 1190 l 1
 233 -177 l 1
 500 -214 l 1
 500 -256 l 1
 90 -256 l 1
EndSplineSet
Validated: 1
EndChar

StartChar: backslash
Encoding: 92 92 60
Width: 737
Flags: W
HStem: 1194 20G<90 229.883>
VStem: 90 557
LayerCount: 2
Fore
SplineSet
513 -18 m 1
 90 1214 l 1
 223 1214 l 1
 647 -18 l 1
 513 -18 l 1
EndSplineSet
Validated: 1
EndChar

StartChar: bracketright
Encoding: 93 93 61
Width: 590
Flags: W
HStem: -256 42<90 193.452> 1227 42<90 193.452>
VStem: 357 143<-177 1190>
LayerCount: 2
Fore
SplineSet
90 -256 m 1
 90 -214 l 1
 357 -177 l 1
 357 1190 l 1
 90 1227 l 1
 90 1269 l 1
 500 1269 l 1
 500 -256 l 1
 90 -256 l 1
EndSplineSet
Validated: 1
EndChar

StartChar: asciicircum
Encoding: 94 94 62
Width: 975
Flags: W
HStem: 428 637
LayerCount: 2
Fore
SplineSet
545 1065 m 1
 885 428 l 1
 748 428 l 1
 487 928 l 1
 226 428 l 1
 90 428 l 1
 430 1065 l 1
 545 1065 l 1
EndSplineSet
Validated: 1
EndChar

StartChar: underscore
Encoding: 95 95 63
Width: 1130
Flags: W
HStem: -402 92<90 1040>
LayerCount: 2
Fore
SplineSet
90 -402 m 1
 90 -310 l 1
 1040 -310 l 1
 1040 -402 l 1
 90 -402 l 1
EndSplineSet
Validated: 1
EndChar

StartChar: grave
Encoding: 96 96 64
Width: 548
Flags: W
HStem: 956 274
VStem: 90 368
LayerCount: 2
Fore
SplineSet
409 956 m 1
 90 1197 l 1
 90 1230 l 1
 282 1230 l 1
 458 985 l 1
 458 956 l 1
 409 956 l 1
EndSplineSet
Validated: 1
EndChar

StartChar: a
Encoding: 97 97 65
Width: 968
Flags: W
HStem: -20 110<300.712 534.027> 0 45<840.908 908> 475 70<341.156 625> 885 76<316.916 578.801>
VStem: 99 166<127.796 418.028> 207 56<721 770.333> 625 166<124.907 479 549 848.563>
LayerCount: 2
Fore
SplineSet
207 926 m 1xb6
 366 960 441 961 485 961 c 0
 492 961 l 0
 719 961 791 859 791 705 c 2
 791 70 l 1
 908 45 l 1
 908 0 l 1
 650 0 l 1x76
 631 94 l 1
 550 13 444 -20 340 -20 c 0
 195 -20 99 54 99 260 c 0xba
 99 509 288 541 484 545 c 1
 625 549 l 1
 625 696 l 2
 625 840 567 885 480 885 c 0
 434 885 360 874 297 838 c 1
 263 721 l 1
 207 721 l 1
 207 926 l 1xb6
408 90 m 0xba
 451 90 511 90 625 145 c 1
 625 479 l 1
 494 475 l 2
 333 470 265 428 265 266 c 0
 265 149 313 90 408 90 c 0xba
EndSplineSet
Validated: 1
EndChar

StartChar: b
Encoding: 98 98 66
Width: 1035
Flags: W
HStem: -20 86<326.037 663.088> 860 105<369.771 674.817> 1376 45<20 101.835>
VStem: 157 166<75.2415 841.043 887 1352> 786 180<227.887 734.761>
LayerCount: 2
Fore
SplineSet
524 66 m 0
 681 66 786 170 786 496 c 0
 786 703 728 860 524 860 c 0
 444 860 359 843 323 827 c 1
 323 82 l 1
 378 71 458 66 524 66 c 0
528 -20 m 0
 387 -20 239 17 157 49 c 1
 157 1352 l 1
 20 1376 l 1
 20 1421 l 1
 323 1421 l 1
 323 1085 l 2
 323 1072 323 1058 322 1042 c 2
 322 990 l 2
 321 949 319 939 317 887 c 1
 376 933 465 965 569 965 c 0
 807 965 966 832 966 496 c 0
 966 192 840 -20 528 -20 c 0
EndSplineSet
Validated: 1
EndChar

StartChar: c
Encoding: 99 99 67
Width: 967
Flags: W
HStem: -20 104<410.661 797.618> 885 80<398.384 721.276>
VStem: 89 180<232.407 720.306> 779 55<672 727.344>
LayerCount: 2
Fore
SplineSet
603 84 m 0
 705 84 803 100 857 117 c 1
 857 57 l 1
 784 4 651 -20 546 -20 c 0
 272 -20 89 111 89 477 c 0
 89 867 329 965 539 965 c 0
 643 965 749 950 834 934 c 1
 834 672 l 1
 779 672 l 1
 736 838 l 1
 706 855 636 885 537 885 c 0
 320 885 269 688 269 477 c 0
 269 219 354 84 603 84 c 0
EndSplineSet
Validated: 1
EndChar

StartChar: d
Encoding: 100 100 68
Width: 1090
Flags: W
HStem: -20 104<381.413 663.126> 0 45<945.481 1012> 883 82<395.914 728.675> 1376 45<572 666.379>
VStem: 87 180<216.416 721.079> 730 166<107.612 872.485 940 1352>
LayerCount: 2
Fore
SplineSet
87 461 m 0xbc
 87 710 173 965 517 965 c 0
 590 965 672 953 736 940 c 1
 733 955 731 989 730 1020 c 2
 730 1069 l 2
 729 1085 730 1098 730 1108 c 2
 730 1352 l 1
 572 1376 l 1
 572 1421 l 1
 896 1421 l 1
 896 70 l 1
 1012 45 l 1
 1012 0 l 1
 748 0 l 1x7c
 736 70 l 1
 673 20 586 -20 472 -20 c 0
 215 -20 87 140 87 461 c 0xbc
527 883 m 0
 371 883 267 771 267 461 c 0
 267 255 321 84 527 84 c 0xbc
 608 84 684 103 730 123 c 1
 730 866 l 1
 675 876 593 883 527 883 c 0
EndSplineSet
Validated: 1
EndChar

StartChar: e
Encoding: 101 101 69
Width: 940
Flags: W
HStem: -20 104<389.026 744.192> 473 80<270 672> 885 80<369.373 592.45>
VStem: 88 180<218.603 473 553 742.111> 672 174<553 790.436>
LayerCount: 2
Fore
SplineSet
485 965 m 0
 702 965 846 852 846 555 c 2
 846 473 l 1
 268 473 l 1
 268 455 l 2
 268 236 326 84 559 84 c 0
 648 84 760 102 809 113 c 1
 809 57 l 1
 760 25 644 -20 510 -20 c 0
 197 -20 88 154 88 477 c 0
 88 903 326 965 485 965 c 0
672 553 m 1
 672 749 635 885 485 885 c 0
 399 885 270 840 270 553 c 1
 672 553 l 1
EndSplineSet
Validated: 1
EndChar

StartChar: f
Encoding: 102 102 70
Width: 822
Flags: W
HStem: 0 45<123 183.385 542.812 631> 856 89<428 675> 856 41<100 149.413> 1218 21G<662.683 719> 1362 80<466.012 627.188>
VStem: 262 166<78 856 945 1261.45>
LayerCount: 2
Fore
SplineSet
543 1362 m 0xbc
 451 1362 431 1281 428 1096 c 2
 425 945 l 1
 675 945 l 1xdc
 678 856 l 1xbc
 428 856 l 1xdc
 428 78 l 1
 631 45 l 1
 631 0 l 1
 123 0 l 1
 123 45 l 1
 262 78 l 1
 262 856 l 1
 100 856 l 1
 100 897 l 1
 262 944 l 1
 262 1010 l 2
 262 1373 450 1442 576 1442 c 0
 632 1442 678 1433 719 1421 c 1
 719 1218 l 1
 670 1218 l 1
 625 1341 l 1
 603 1355 580 1362 543 1362 c 0xbc
EndSplineSet
Validated: 1
EndChar

StartChar: g
Encoding: 103 103 71
Width: 1074
Flags: W
HStem: -442 80<293.616 696.631> -6 158<283.766 800.694> 315 76<366.746 622.61> 889 76<366.648 627.877>
VStem: 88 141<-308.81 -100.409> 121 174<457.424 818.127> 696 174<464.046 825.889> 829 156<-254.391 -30.8154>
LayerCount: 2
Fore
SplineSet
803 864 m 1xf4
 859 802 870 708 870 643 c 0xf6
 870 381 677 315 494 315 c 0
 433 315 372 324 342 330 c 1
 279 199 l 1
 283 174 341 152 408 152 c 2
 686 152 l 2
 944 152 985 3 985 -96 c 0
 985 -234 895 -442 481 -442 c 0
 144 -442 88 -306 88 -215 c 0xf9
 88 -125 160 -59 256 10 c 1
 219 22 121 76 121 174 c 1
 279 352 l 1
 174 401 121 498 121 643 c 0
 121 870 281 965 502 965 c 0
 564 965 651 952 686 940 c 1
 907 1051 l 1
 942 1008 l 1
 803 864 l 1xf4
481 -362 m 0
 772 -362 829 -221 829 -127 c 0
 829 -82 813 -6 688 -6 c 2
 324 -6 l 1
 278 -46 229 -124 229 -201 c 0xf9
 229 -298 286 -362 481 -362 c 0
295 643 m 256xf6
 295 444 375 391 496 391 c 0
 616 391 696 445 696 643 c 0
 696 802 649 889 498 889 c 0
 345 889 295 803 295 643 c 256xf6
EndSplineSet
Validated: 1
EndChar

StartChar: h
Encoding: 104 104 72
Width: 1094
Flags: W
HStem: 0 45<75 143.239 414.173 487 626 697.68 965.628 1031> 848 117<476.993 709.782> 1376 45<54 137.627>
VStem: 194 166<70 827.424 864.946 1352> 751 166<70 803.422>
LayerCount: 2
Fore
SplineSet
585 848 m 0
 554 848 474 844 360 819 c 1
 360 70 l 1
 487 45 l 1
 487 0 l 1
 75 0 l 1
 75 45 l 1
 194 70 l 1
 194 1352 l 1
 54 1376 l 1
 54 1421 l 1
 360 1421 l 1
 360 1014 l 2
 360 1005 360 993 360 980 c 2
 358 940 l 2
 358 916 356 884 353 864 c 1
 437 912 579 965 671 965 c 0
 841 965 917 859 917 688 c 2
 917 70 l 1
 1031 45 l 1
 1031 0 l 1
 626 0 l 1
 626 45 l 1
 751 70 l 1
 751 676 l 2
 751 764 718 848 585 848 c 0
EndSplineSet
Validated: 1
EndChar

StartChar: i
Encoding: 105 105 73
Width: 634
Flags: W
HStem: 0 45<91 182.75 485.676 578> 895 45<118 194.268> 1139 217<230.943 404.925>
VStem: 210 217<1161.31 1334.72> 251 166<70 870>
LayerCount: 2
Fore
SplineSet
318 1356 m 256xf0
 382 1356 427 1303 427 1247 c 256
 427 1184 373 1139 318 1139 c 256
 262 1139 210 1185 210 1247 c 256
 210 1310 262 1356 318 1356 c 256xf0
417 70 m 1xe8
 578 45 l 1
 578 0 l 1
 91 0 l 1
 91 45 l 1
 251 70 l 1
 251 870 l 1
 118 895 l 1
 118 940 l 1
 417 940 l 1
 417 70 l 1xe8
EndSplineSet
Validated: 1
EndChar

StartChar: j
Encoding: 106 106 74
Width: 545
Flags: W
HStem: -436 80<33.0837 189.326> 895 45<94 174.855> 1139 217<215.713 388.691>
VStem: -41 47<-276.875 -219> 194 217<1160.65 1334.44> 235 166<-280.387 870>
LayerCount: 2
Fore
SplineSet
303 1356 m 0xf8
 366 1356 411 1302 411 1247 c 256
 411 1191 365 1139 303 1139 c 0
 243 1139 194 1188 194 1247 c 256
 194 1302 237 1356 303 1356 c 0xf8
116 -356 m 0
 222 -356 235 -205 235 -90 c 2
 235 870 l 1
 94 895 l 1
 94 940 l 1
 401 940 l 1
 401 -39 l 2xf4
 401 -385 223 -436 104 -436 c 0
 75 -436 44 -436 -41 -418 c 1
 -41 -219 l 1
 6 -219 l 1
 33 -328 l 1
 55 -347 83 -356 116 -356 c 0
EndSplineSet
Validated: 1
EndChar

StartChar: k
Encoding: 107 107 75
Width: 1117
Flags: W
HStem: 0 45<72 140.239 399.656 457 652 701.316 973.423 1037> 895 45<644 696.034 903.073 976> 1376 45<52 135.029>
VStem: 191 166<70 340 453 1352>
LayerCount: 2
Fore
SplineSet
357 453 m 1
 742 868 l 1
 644 895 l 1
 644 940 l 1
 976 940 l 1
 976 895 l 1
 859 872 l 1
 591 598 l 1
 935 68 l 1
 1037 45 l 1
 1037 0 l 1
 652 0 l 1
 652 45 l 1
 738 70 l 1
 480 475 l 1
 357 340 l 1
 357 70 l 1
 457 45 l 1
 457 0 l 1
 72 0 l 1
 72 45 l 1
 191 70 l 1
 191 1352 l 1
 52 1376 l 1
 52 1421 l 1
 357 1421 l 1
 357 453 l 1
EndSplineSet
Validated: 1
EndChar

StartChar: l
Encoding: 108 108 76
Width: 600
Flags: W
HStem: 0 45<56 147.75 450.676 543> 1376 45<56 151.573>
VStem: 216 166<70 1352>
LayerCount: 2
Fore
SplineSet
382 70 m 1
 543 45 l 1
 543 0 l 1
 56 0 l 1
 56 45 l 1
 216 70 l 1
 216 1352 l 1
 56 1376 l 1
 56 1421 l 1
 382 1421 l 1
 382 70 l 1
EndSplineSet
Validated: 1
EndChar

StartChar: m
Encoding: 109 109 77
Width: 1655
Flags: W
HStem: 0 45<78 146.239 423.145 504 613 692.708 978.145 1059 1169 1249.28 1526.61 1596> 842 123<481.686 709.141 1031.23 1275.18> 895 45<78 146.239>
VStem: 197 166<70 813> 752 166<70 797.625> 1309 166<70 808.947>
LayerCount: 2
Fore
SplineSet
752 670 m 2xdc
 752 781 695 842 582 842 c 0xdc
 512 842 425 826 407 822 c 2
 363 813 l 1
 363 70 l 1
 504 45 l 1
 504 0 l 1
 78 0 l 1
 78 45 l 1
 197 70 l 1
 197 870 l 1
 78 895 l 1
 78 940 l 1
 353 940 l 1xbc
 361 864 l 1
 383 876 545 965 668 965 c 0
 703 965 830 960 883 856 c 1
 976 908 1135 965 1235 965 c 0
 1379 965 1475 888 1475 688 c 2
 1475 70 l 1
 1596 45 l 1
 1596 0 l 1
 1169 0 l 1
 1169 45 l 1
 1309 70 l 1
 1309 670 l 2
 1309 808 1246 842 1160 842 c 0
 1121 842 1011 829 953 818 c 2
 901 807 l 1
 912 771 918 731 918 688 c 2
 918 70 l 1
 1059 45 l 1
 1059 0 l 1
 613 0 l 1
 613 45 l 1
 752 70 l 1
 752 670 l 2xdc
EndSplineSet
Validated: 1
EndChar

StartChar: n
Encoding: 110 110 78
Width: 1088
Flags: W
HStem: 0 45<80 144.799 413.173 486 621 692.68 960.628 1026> 848 117<475.988 699.765> 895 45<80 144.799>
VStem: 193 166<70 819> 746 166<70 803.422>
LayerCount: 2
Fore
SplineSet
746 670 m 2xd8
 746 757 713 848 580 848 c 0xd8
 536 848 456 839 403 828 c 2
 359 819 l 1
 359 70 l 1
 486 45 l 1
 486 0 l 1
 80 0 l 1
 80 45 l 1
 193 70 l 1
 193 870 l 1
 80 895 l 1
 80 940 l 1
 348 940 l 1xb8
 357 864 l 1
 446 915 576 965 666 965 c 0
 836 965 912 859 912 688 c 2
 912 70 l 1
 1026 45 l 1
 1026 0 l 1
 621 0 l 1
 621 45 l 1
 746 70 l 1
 746 670 l 2xd8
EndSplineSet
Validated: 1
EndChar

StartChar: o
Encoding: 111 111 79
Width: 1023
Flags: W
HStem: -20 79<386.156 651.165> 885 80<379.576 655.139>
VStem: 90 180<217.575 731.048> 778 180<213.719 733.472>
LayerCount: 2
Fore
SplineSet
526 965 m 0
 785 965 958 828 958 475 c 0
 958 165 826 -20 518 -20 c 0
 176 -20 90 230 90 475 c 0
 90 722 177 965 526 965 c 0
518 59 m 0
 726 59 778 238 778 475 c 0
 778 712 726 885 518 885 c 0
 320 885 270 732 270 475 c 0
 270 218 320 59 518 59 c 0
EndSplineSet
Validated: 1
EndChar

StartChar: p
Encoding: 112 112 80
Width: 1014
Flags: W
HStem: -436 47<37 108.083 387.037 485> -20 79<323.607 645.849> 860 105<370.002 656.492> 895 45<49 110.358>
VStem: 156 165<-365 -0.539001 68.8611 841.301> 768 180<223.719 732.358>
LayerCount: 2
Fore
SplineSet
315 0 m 1xec
 316 -11 321 -54 321 -111 c 2
 321 -365 l 1
 485 -389 l 1
 485 -436 l 1
 37 -436 l 1
 37 -389 l 1
 156 -365 l 1
 156 870 l 1
 49 895 l 1
 49 940 l 1
 313 940 l 1xdc
 315 885 l 1
 374 936 479 965 571 965 c 0
 844 965 948 747 948 481 c 0
 948 196 827 -20 530 -20 c 0
 444 -20 368 -11 315 0 c 1xec
516 59 m 0
 667 59 768 171 768 481 c 0
 768 684 718 860 516 860 c 0xec
 428 860 356 842 321 827 c 1
 321 76 l 1
 398 61 477 59 516 59 c 0
EndSplineSet
Validated: 1
EndChar

StartChar: q
Encoding: 113 113 81
Width: 1088
Flags: W
HStem: -436 47<598 675.056 934.877 997> -20 104<380.844 674.813> 883 82<392.017 725.669>
VStem: 84 180<214.274 724.486> 727 166<-365 61.4399 102.957 872.485>
LayerCount: 2
Fore
SplineSet
510 965 m 0
 583 965 669 953 733 940 c 1
 823 985 l 1
 893 985 l 1
 893 -365 l 1
 997 -389 l 1
 997 -436 l 1
 598 -436 l 1
 598 -389 l 1
 727 -365 l 1
 727 -104 l 2
 727 -21 732 30 737 63 c 1
 676 15 587 -20 469 -20 c 0
 189 -20 84 176 84 467 c 0
 84 760 209 965 510 965 c 0
524 883 m 0
 420 883 264 834 264 467 c 0
 264 183 368 84 524 84 c 0
 605 84 691 101 727 117 c 1
 727 866 l 1
 672 876 590 883 524 883 c 0
EndSplineSet
Validated: 1
EndChar

StartChar: r
Encoding: 114 114 82
Width: 799
Flags: W
HStem: 0 45<78 146.239 431.676 524> 821 144<530.189 600> 895 45<78 146.239>
VStem: 197 166<70 788.466>
LayerCount: 2
Fore
SplineSet
361 821 m 1xd0
 423 872 591 965 686 965 c 2
 701 965 l 1
 701 711 l 1
 658 711 l 1
 600 821 l 1xd0
 529 821 426 801 363 772 c 1
 363 70 l 1
 524 45 l 1
 524 0 l 1
 78 0 l 1
 78 45 l 1
 197 70 l 1
 197 870 l 1
 78 895 l 1
 78 940 l 1
 352 940 l 1xb0
 361 821 l 1xd0
EndSplineSet
Validated: 1
EndChar

StartChar: s
Encoding: 115 115 83
Width: 854
Flags: W
HStem: -20 79<262.603 553.035> 885 80<317.516 597.394>
VStem: 125 149<637.65 846.569> 610 154<105.911 334.948>
LayerCount: 2
Fore
SplineSet
440 885 m 0
 309 885 274 804 274 737 c 0
 274 694 284 625 429 576 c 2
 519 545 l 2
 647 501 764 442 764 264 c 0
 764 150 720 -20 414 -20 c 0
 292 -20 161 13 125 27 c 1
 125 258 l 1
 172 258 l 1
 221 127 l 1
 260 92 325 59 416 59 c 0
 514 59 610 92 610 225 c 0
 610 262 606 349 457 398 c 2
 367 428 l 2
 239 470 125 524 125 698 c 0
 125 881 267 965 438 965 c 0
 477 965 544 964 696 934 c 1
 696 729 l 1
 649 729 l 1
 607 838 l 1
 560 879 473 885 440 885 c 0
EndSplineSet
Validated: 1
EndChar

StartChar: t
Encoding: 116 116 84
Width: 729
Flags: W
HStem: -20 104<321.426 604.447> 856 84<375 590> 856 45<86 131.214>
VStem: 209 166<104.307 856>
LayerCount: 2
Fore
SplineSet
623 35 m 1xd0
 587 11 495 -20 400 -20 c 0
 247 -20 209 91 209 197 c 2
 209 856 l 1
 86 856 l 1
 86 901 l 1xb0
 209 940 l 1
 312 1153 l 1
 375 1153 l 1
 375 940 l 1
 590 940 l 1
 590 856 l 1
 375 856 l 1
 375 215 l 2
 375 106 439 84 482 84 c 0
 496 84 540 84 623 100 c 1
 623 35 l 1xd0
EndSplineSet
Validated: 1
EndChar

StartChar: u
Encoding: 117 117 85
Width: 1060
Flags: W
HStem: -20 116<359.226 597.794> 0 45<927.761 996> 895 45<34 102.813 570 651.428>
VStem: 154 166<135.604 870> 712 165<116.33 870>
LayerCount: 2
Fore
SplineSet
394 -20 m 0xb8
 250 -20 154 57 154 256 c 2
 154 870 l 1
 34 895 l 1
 34 940 l 1
 320 940 l 1
 320 268 l 2
 320 130 394 96 480 96 c 0xb8
 562 96 644 108 712 127 c 1
 712 870 l 1
 570 895 l 1
 570 940 l 1
 877 940 l 1
 877 70 l 1
 996 45 l 1
 996 0 l 1
 722 0 l 1x78
 712 76 l 1
 627 29 485 -20 394 -20 c 0xb8
EndSplineSet
Validated: 1
EndChar

StartChar: v
Encoding: 118 118 86
Width: 1074
Flags: W
HStem: -20 21G<484.303 575.434> 895 45<10 65.0502 368.887 448 686 771.443 972.56 1034>
LayerCount: 2
Fore
SplineSet
944 874 m 1
 567 -20 l 1
 493 -20 l 1
 106 870 l 1
 10 895 l 1
 10 940 l 1
 448 940 l 1
 448 895 l 1
 299 868 l 1
 573 219 l 1
 835 870 l 1
 686 895 l 1
 686 940 l 1
 1034 940 l 1
 1034 895 l 1
 944 874 l 1
EndSplineSet
Validated: 1
EndChar

StartChar: w
Encoding: 119 119 87
Width: 1521
Flags: W
HStem: -20 21G<441.697 530.387 976.516 1069.05> 895 45<11 75.7987 377.17 460 1123 1211.31 1410 1481>
LayerCount: 2
Fore
SplineSet
1377 874 m 1
 1062 -20 l 1
 984 -20 l 1
 752 600 l 1
 523 -20 l 1
 449 -20 l 1
 124 870 l 1
 11 895 l 1
 11 940 l 1
 460 940 l 1
 460 895 l 1
 304 868 l 1
 527 233 l 1
 754 846 l 1
 838 846 l 1
 1064 229 l 1
 1277 870 l 1
 1123 895 l 1
 1123 940 l 1
 1481 940 l 1
 1481 895 l 1
 1377 874 l 1
EndSplineSet
Validated: 1
EndChar

StartChar: x
Encoding: 120 120 88
Width: 1109
Flags: W
HStem: 0 45<61 158.664 310.936 399 616 693.913 966.907 1042> 895 45<96 159.652 455.63 522 657 730.974 921.272 995>
LayerCount: 2
Fore
SplineSet
932 66 m 1
 1042 45 l 1
 1042 0 l 1
 616 0 l 1
 616 45 l 1
 741 68 l 1
 524 401 l 1
 270 66 l 1
 399 45 l 1
 399 0 l 1
 61 0 l 1
 61 45 l 1
 170 61 l 1
 479 469 l 1
 207 870 l 1
 96 895 l 1
 96 940 l 1
 522 940 l 1
 522 895 l 1
 397 868 l 1
 578 598 l 1
 786 870 l 1
 657 895 l 1
 657 940 l 1
 995 940 l 1
 995 895 l 1
 887 874 l 1
 623 532 l 1
 932 66 l 1
EndSplineSet
Validated: 1
EndChar

StartChar: y
Encoding: 121 121 89
Width: 1047
Flags: W
HStem: -442 102<113.841 315.395> 895 45<16 71.0502 373.417 452 657 741.296 940.099 1007>
LayerCount: 2
Fore
SplineSet
190 -442 m 0
 136 -442 96 -438 36 -424 c 1
 36 -221 l 1
 83 -221 l 1
 116 -317 l 1
 137 -332 165 -340 202 -340 c 0
 313 -340 382 -242 444 -82 c 1
 470 -10 l 1
 112 870 l 1
 16 895 l 1
 16 940 l 1
 452 940 l 1
 452 895 l 1
 304 868 l 1
 558 211 l 1
 804 870 l 1
 657 895 l 1
 657 940 l 1
 1007 940 l 1
 1007 895 l 1
 909 874 l 1
 542 -59 l 2
 454 -281 372 -442 190 -442 c 0
EndSplineSet
Validated: 1
EndChar

StartChar: z
Encoding: 122 122 90
Width: 994
Flags: W
HStem: 0 80<309 781.604> 860 80<210.208 610>
VStem: 131 47<690 752.431> 844 47<268.624 324>
LayerCount: 2
Fore
SplineSet
94 0 m 1
 94 45 l 1
 610 860 l 1
 389 860 l 2
 309 860 234 845 209 825 c 1
 178 690 l 1
 131 690 l 1
 131 940 l 1
 825 940 l 1
 825 891 l 1
 309 80 l 1
 584 80 l 2
 643 80 749 95 793 127 c 1
 844 324 l 1
 891 324 l 1
 866 0 l 1
 94 0 l 1
EndSplineSet
Validated: 1
EndChar

StartChar: braceleft
Encoding: 123 123 91
Width: 729
Flags: W
HStem: -256 42<503.073 639> 488 41<90 186.812> 1227 42<500.785 639>
VStem: 283 149<-163.748 425.946 592.327 1181.56>
CounterMasks: 1 e0
LayerCount: 2
Fore
SplineSet
432 -18 m 2
 432 -168 493 -214 584 -214 c 2
 639 -214 l 1
 639 -256 l 1
 518 -256 l 2
 356 -256 283 -147 283 8 c 2
 283 274 l 2
 283 414 221 488 90 488 c 1
 90 529 l 1
 248 529 283 635 283 741 c 2
 283 1006 l 2
 283 1136 330 1269 518 1269 c 2
 639 1269 l 1
 639 1227 l 1
 584 1227 l 2
 493 1227 432 1183 432 1033 c 2
 432 736 l 2
 432 621 364 533 260 511 c 1
 260 508 l 1
 365 483 432 400 432 280 c 2
 432 -18 l 2
EndSplineSet
Validated: 1
EndChar

StartChar: bar
Encoding: 124 124 92
Width: 321
Flags: W
VStem: 90 141<-303 1158>
LayerCount: 2
Fore
SplineSet
90 -303 m 1
 90 1158 l 1
 231 1158 l 1
 231 -303 l 1
 90 -303 l 1
EndSplineSet
Validated: 1
EndChar

StartChar: braceright
Encoding: 125 125 93
Width: 729
Flags: W
HStem: -256 42<90 226.836> 488 41<542.188 639> 1227 42<90 229.124>
VStem: 297 149<-163.242 425.946 592.327 1181.56>
CounterMasks: 1 e0
LayerCount: 2
Fore
SplineSet
446 8 m 2
 446 -146 373 -256 212 -256 c 2
 90 -256 l 1
 90 -214 l 1
 145 -214 l 2
 236 -214 297 -168 297 -18 c 2
 297 280 l 2
 297 400 364 483 469 508 c 1
 469 511 l 1
 365 533 297 621 297 736 c 2
 297 1033 l 2
 297 1183 236 1227 145 1227 c 2
 90 1227 l 1
 90 1269 l 1
 212 1269 l 2
 399 1269 446 1136 446 1006 c 2
 446 741 l 2
 446 636 481 529 639 529 c 1
 639 488 l 1
 478 488 446 377 446 274 c 2
 446 8 l 2
EndSplineSet
Validated: 1
EndChar

StartChar: asciitilde
Encoding: 126 126 94
Width: 1072
Flags: W
HStem: 452 92<637.686 834.835> 669 93<228.625 437.212>
VStem: 90 91<452 620.398> 890 92<605.268 762>
LayerCount: 2
Fore
SplineSet
982 762 m 1
 963 610 920 452 740 452 c 0
 575 452 453 669 332 669 c 0
 211 669 181 554 181 452 c 1
 90 452 l 1
 90 612 149 762 332 762 c 0
 377 762 441 750 557 653 c 1
 621 601 l 1
 684 551 716 544 740 544 c 0
 830 544 868 607 890 762 c 1
 982 762 l 1
EndSplineSet
Validated: 1
EndChar

StartChar: sterling
Encoding: 163 163 95
Width: 916
Flags: W
HStem: 0 112<124 200.054 280 794> 477 97<140 238 361 627> 996 87<411.49 685.458>
VStem: 205 138<579.049 931.903> 238 108<574 836.751> 265 96<188.967 477> 766 60<792 852.53>
LayerCount: 2
Fore
SplineSet
280 112 m 1xe6
 351 112 791 117 805 117 c 1
 794 0 l 1
 90 0 l 1
 124 105 l 1
 202 117 265 250 265 314 c 0xe6
 265 332 255 416 255 477 c 1
 113 477 l 1
 140 574 l 1
 238 574 l 1xea
 217 682 205 771 205 840 c 0
 205 981 336 1083 528 1083 c 0
 607 1083 718 1064 826 1029 c 1
 826 792 l 1
 766 792 l 1
 739 906 l 1
 701 956 629 996 560 996 c 0
 556 996 553 996 550 996 c 0
 517 994 497 992 496 991 c 1
 372 965 343 884 343 811 c 0xf2
 343 796 344 780 346 766 c 1
 346 746 345 673 345 623 c 0
 345 598 345 578 346 574 c 1xea
 649 574 l 1
 627 477 l 1
 361 477 l 1
 361 342 325 168 280 112 c 1xe6
EndSplineSet
Validated: 1
EndChar

StartChar: sheva
Encoding: 1456 1456 126
Width: 0
VWidth: 1761
GlyphClass: 4
Flags: W
AnchorPoint: "M2V" -171 0 basemark 0
AnchorPoint: "N" -1 0 mark 0
LayerCount: 2
Fore
SplineSet
-25 -166 m 2
 -8 -149 8 -149 25 -165 c 2
 77 -217 l 2
 93 -234 94 -250 78 -266 c 2
 24 -320 l 2
 8 -336 -8 -335 -25 -319 c 2
 -77 -267 l 2
 -93 -250 -94 -234 -78 -218 c 2
 -25 -166 l 2
-25 -405 m 2
 -8 -389 8 -388 24 -404 c 2
 77 -457 l 2
 94 -473 94 -489 77 -505 c 2
 24 -559 l 2
 7 -575 -8 -575 -24 -559 c 2
 -77 -506 l 2
 -94 -490 -94 -474 -77 -458 c 2
 -25 -405 l 2
EndSplineSet
Validated: 1
MultipleSubs2: "meteg-tenua-stage2" sheva meteg
LCarets2: 1 0 
Ligature2: "meteg-tenua-stage1" meteg sheva
EndChar

StartChar: hatafsegol
Encoding: 1457 1457 127
Width: 0
VWidth: 1761
GlyphClass: 4
Flags: W
AnchorPoint: "VR" -95 0 mark 0
AnchorPoint: "M2V" -395 0 basemark 0
AnchorPoint: "H" 0 0 mark 0
LayerCount: 2
Fore
SplineSet
198 -166 m 2
 215 -149 232 -149 248 -165 c 2
 300 -217 l 2
 316 -233 316 -249 300 -265 c 2
 246 -319 l 2
 230 -335 215 -335 198 -319 c 2
 146 -267 l 2
 130 -250 129 -234 145 -218 c 2
 198 -166 l 2
198 -406 m 1
 215 -389 231 -388 247 -404 c 2
 300 -457 l 2
 316 -474 317 -490 301 -506 c 2
 247 -560 l 2
 231 -576 215 -575 198 -559 c 2
 145 -506 l 2
 129 -490 129 -474 145 -458 c 1
 198 -406 l 1
-248 -165 m 1
 -232 -149 -216 -148 -199 -164 c 2
 -146 -217 l 2
 -130 -234 -131 -250 -147 -266 c 2
 -199 -319 l 2
 -216 -335 -231 -335 -248 -319 c 2
 -301 -266 l 2
 -317 -249 -317 -234 -301 -217 c 1
 -248 -165 l 1
-9 -164 m 2
 8 -148 23 -148 40 -164 c 2
 93 -217 l 2
 109 -234 109 -249 93 -266 c 2
 40 -318 l 2
 24 -334 8 -335 -9 -319 c 2
 -62 -266 l 2
 -78 -249 -77 -233 -61 -217 c 2
 -9 -164 l 2
-126 -406 m 2
 -110 -390 -93 -389 -77 -405 c 2
 -24 -458 l 2
 -7 -474 -8 -491 -24 -506 c 2
 -77 -560 l 2
 -94 -576 -109 -576 -125 -560 c 2
 -178 -507 l 2
 -195 -491 -195 -475 -178 -459 c 2
 -126 -406 l 2
EndSplineSet
Validated: 1
LCarets2: 1 0 
MultipleSubs2: "meteg-tenua-stage2" hatafsegol meteg
Ligature2: "meteg-tenua-stage1" meteg hatafsegol
EndChar

StartChar: hatafpatah
Encoding: 1458 1458 128
Width: 0
VWidth: 1761
GlyphClass: 4
Flags: W
HStem: -287 109<-297.547 26.8564>
AnchorPoint: "VR" -95.4463 0 mark 0
AnchorPoint: "M2V" -395 0 basemark 0
AnchorPoint: "H" -0.446289 0 mark 0
LayerCount: 2
Fore
SplineSet
-302 -287 m 2
 -311 -287 -314 -283 -311 -274 c 2
 -290 -193 l 2
 -287 -184 -281 -178 -273 -178 c 2
 37 -178 l 2
 47 -178 51 -184 48 -193 c 2
 27 -274 l 2
 24 -283 17 -287 8 -287 c 2
 -302 -287 l 2
197 -166 m 1
 214 -148 231 -149 247 -165 c 1
 300 -217 l 2
 316 -234 317 -250 301 -266 c 2
 247 -320 l 2
 231 -336 214 -335 198 -319 c 2
 146 -267 l 2
 129 -250 129 -234 145 -218 c 2
 197 -166 l 1
198 -405 m 2
 215 -389 231 -388 247 -404 c 2
 300 -457 l 2
 316 -473 316 -489 300 -505 c 2
 246 -559 l 2
 230 -575 215 -575 198 -559 c 2
 145 -506 l 2
 129 -490 129 -474 145 -458 c 2
 198 -405 l 2
EndSplineSet
Validated: 1
LCarets2: 1 0 
MultipleSubs2: "meteg-tenua-stage2" hatafpatah meteg
Ligature2: "meteg-tenua-stage1" meteg hatafpatah
EndChar

StartChar: hatafqamats
Encoding: 1459 1459 129
Width: 0
VWidth: 1761
GlyphClass: 4
Flags: W
HStem: -294 109<-298.547 -174 -88 25.8564>
VStem: -184 105<-490 -294>
AnchorPoint: "VR" -94.75 0 mark 0
AnchorPoint: "M2V" -395 0 basemark 0
AnchorPoint: "H" 0.25 0 mark 0
LayerCount: 2
Fore
SplineSet
-88 -294 m 1
 -79 -480 l 2
 -79 -487 -82 -490 -89 -490 c 2
 -175 -490 l 2
 -180 -490 -184 -487 -184 -480 c 2
 -174 -294 l 1
 -303 -294 l 2
 -312 -294 -315 -290 -312 -281 c 2
 -291 -200 l 2
 -288 -191 -282 -185 -274 -185 c 1
 36 -185 l 1
 46 -185 50 -191 47 -200 c 2
 26 -281 l 2
 23 -290 16 -294 7 -294 c 2
 -88 -294 l 1
198 -166 m 1
 215 -149 232 -149 248 -165 c 2
 300 -217 l 2
 316 -233 317 -250 301 -266 c 2
 247 -320 l 2
 231 -336 214 -335 198 -318 c 2
 146 -267 l 2
 130 -250 129 -234 145 -218 c 1
 198 -166 l 1
198 -405 m 2
 215 -389 231 -388 248 -404 c 2
 301 -457 l 2
 317 -473 317 -489 301 -505 c 2
 247 -559 l 2
 231 -575 215 -575 199 -559 c 2
 146 -506 l 2
 130 -490 130 -474 146 -458 c 2
 198 -405 l 2
EndSplineSet
Validated: 1
LCarets2: 1 0 
MultipleSubs2: "meteg-tenua-stage2" hatafqamats meteg
Ligature2: "meteg-tenua-stage1" meteg hatafqamats
EndChar

StartChar: hiriq
Encoding: 1460 1460 130
Width: 0
VWidth: 1761
GlyphClass: 4
Flags: W
AnchorPoint: "J1" 286 0 mark 0
AnchorPoint: "M2V" -160 0.333336 basemark 0
AnchorPoint: "N" 0 0.333336 mark 0
LayerCount: 2
Fore
SplineSet
-25 -166 m 2
 -8 -149 8 -149 25 -165 c 2
 78 -218 l 2
 94 -234 93 -250 78 -266 c 2
 24 -320 l 2
 8 -335 -8 -336 -24 -320 c 2
 -77 -267 l 2
 -93 -250 -93 -234 -78 -218 c 2
 -25 -166 l 2
EndSplineSet
Validated: 1
LCarets2: 1 0 
MultipleSubs2: "meteg-tenua-stage2" hiriq meteg
Ligature2: "meteg-tenua-stage1" meteg hiriq
EndChar

StartChar: tsere
Encoding: 1461 1461 131
Width: 0
VWidth: 1761
GlyphClass: 4
Flags: W
AnchorPoint: "VR" -95 1 mark 0
AnchorPoint: "M2V" -290 0 basemark 0
AnchorPoint: "W" 0 0 mark 0
LayerCount: 2
Fore
SplineSet
-144 -165 m 2
 -128 -149 -112 -148 -95 -164 c 2
 -42 -217 l 2
 -26 -234 -27 -250 -43 -266 c 2
 -95 -319 l 2
 -112 -335 -127 -335 -144 -319 c 2
 -197 -266 l 2
 -213 -249 -213 -234 -197 -217 c 2
 -144 -165 l 2
95 -164 m 1
 112 -148 127 -148 144 -164 c 2
 197 -217 l 2
 213 -234 213 -249 197 -266 c 2
 144 -318 l 2
 128 -334 112 -335 95 -319 c 2
 42 -266 l 2
 26 -249 27 -233 43 -217 c 1
 95 -164 l 1
EndSplineSet
Validated: 1
LCarets2: 1 0 
MultipleSubs2: "meteg-tenua-stage2" tsere meteg
Ligature2: "meteg-tenua-stage1" meteg tsere
EndChar

StartChar: segol
Encoding: 1462 1462 132
Width: 0
VWidth: 1761
GlyphClass: 4
Flags: W
AnchorPoint: "VR" -95 1 mark 0
AnchorPoint: "M2V" -297 0 basemark 0
AnchorPoint: "W" 0 0 mark 0
LayerCount: 2
Fore
SplineSet
-144 -165 m 1
 -128 -149 -112 -148 -95 -164 c 2
 -42 -217 l 2
 -26 -234 -27 -250 -43 -266 c 2
 -95 -319 l 2
 -112 -335 -127 -335 -144 -319 c 2
 -197 -266 l 2
 -213 -249 -213 -234 -197 -217 c 1
 -144 -165 l 1
95 -164 m 1
 112 -148 127 -148 144 -164 c 2
 197 -217 l 2
 213 -234 213 -249 197 -266 c 2
 144 -318 l 2
 128 -334 112 -335 95 -319 c 2
 42 -266 l 2
 26 -249 27 -233 43 -217 c 1
 95 -164 l 1
-22 -406 m 2
 -6 -390 11 -389 27 -405 c 2
 80 -458 l 2
 97 -474 96 -491 80 -506 c 2
 27 -560 l 2
 10 -576 -5 -576 -21 -560 c 2
 -74 -507 l 2
 -91 -491 -91 -475 -74 -459 c 2
 -22 -406 l 2
EndSplineSet
Validated: 1
LCarets2: 1 0 
MultipleSubs2: "meteg-tenua-stage2" segol meteg
Ligature2: "meteg-tenua-stage1" meteg segol
EndChar

StartChar: patah
Encoding: 1463 1463 133
Width: 0
VWidth: 1761
GlyphClass: 4
Flags: W
HStem: -279 109<-166.547 157.856>
VStem: -180 359
AnchorPoint: "VR" -95 1 mark 0
AnchorPoint: "M2V" -260 0 basemark 0
AnchorPoint: "W" 0 0 mark 0
LayerCount: 2
Fore
SplineSet
-171 -279 m 2
 -180 -279 -183 -275 -180 -266 c 2
 -159 -185 l 2
 -156 -176 -150 -170 -142 -170 c 1
 168 -170 l 1
 178 -170 182 -176 179 -185 c 2
 158 -266 l 2
 155 -275 148 -279 139 -279 c 2
 -171 -279 l 2
EndSplineSet
Validated: 1
LCarets2: 1 0 
MultipleSubs2: "meteg-tenua-stage2" patah meteg
Ligature2: "meteg-tenua-stage1" meteg patah
EndChar

StartChar: qamats
Encoding: 1464 1464 134
Width: 0
VWidth: 1761
GlyphClass: 4
Flags: W
HStem: -279 109<-166.547 -42 44 157.856>
VStem: -52 105<-475 -279>
AnchorPoint: "VR" -95 1 mark 0
AnchorPoint: "M2V" -260 0 basemark 0
AnchorPoint: "W" 0 0 mark 0
LayerCount: 2
Fore
SplineSet
44 -279 m 1
 53 -465 l 2
 53 -472 50 -475 43 -475 c 2
 -43 -475 l 2
 -48 -475 -52 -472 -52 -465 c 2
 -42 -279 l 1
 -171 -279 l 2
 -180 -279 -183 -275 -180 -266 c 2
 -159 -185 l 2
 -156 -176 -150 -170 -142 -170 c 1
 168 -170 l 1
 178 -170 182 -176 179 -185 c 2
 158 -266 l 2
 155 -275 148 -279 139 -279 c 2
 44 -279 l 1
EndSplineSet
Validated: 1
LCarets2: 1 0 
MultipleSubs2: "meteg-tenua-stage2" qamats meteg
Ligature2: "meteg-tenua-stage1" meteg qamats
EndChar

StartChar: holam
Encoding: 1465 1465 135
Width: 0
VWidth: 1761
GlyphClass: 4
Flags: W
AnchorPoint: "Holam" 0 0 mark 0
LayerCount: 2
Fore
SplineSet
-25 1395 m 2
 -8 1412 8 1412 24 1397 c 2
 78 1343 l 2
 94 1327 93 1311 78 1295 c 2
 24 1241 l 2
 8 1226 -8 1225 -24 1241 c 2
 -78 1295 l 2
 -93 1311 -93 1327 -78 1343 c 2
 -25 1395 l 2
EndSplineSet
Validated: 1
EndChar

StartChar: qubuts
Encoding: 1467 1467 136
Width: 0
VWidth: 1761
GlyphClass: 4
Flags: W
AnchorPoint: "M2V" -310 0 basemark 0
AnchorPoint: "W" -143 -2 mark 0
LayerCount: 2
Fore
SplineSet
-166 -165 m 2
 -151 -149 -136 -149 -121 -163 c 2
 -74 -211 l 2
 -59 -226 -59 -240 -74 -255 c 2
 -122 -303 l 2
 -136 -317 -151 -318 -166 -303 c 2
 -213 -255 l 2
 -228 -240 -227 -226 -214 -212 c 2
 -166 -165 l 2
-25 -294 m 2
 -10 -279 5 -278 20 -293 c 2
 67 -340 l 2
 82 -355 82 -370 67 -384 c 2
 19 -433 l 2
 5 -446 -10 -447 -25 -432 c 2
 -72 -385 l 2
 -87 -370 -86 -355 -73 -341 c 2
 -25 -294 l 2
118 -429 m 2
 133 -414 148 -413 163 -428 c 2
 210 -475 l 2
 225 -490 225 -505 210 -519 c 2
 162 -568 l 2
 148 -581 133 -582 118 -567 c 2
 71 -520 l 2
 56 -505 57 -490 70 -477 c 2
 118 -429 l 2
EndSplineSet
LCarets2: 1 0 
MultipleSubs2: "meteg-tenua-stage2" qubuts meteg
Ligature2: "meteg-tenua-stage1" meteg qubuts
EndChar

StartChar: dagesh
Encoding: 1468 1468 137
Width: 0
VWidth: 1761
GlyphClass: 4
Flags: W
AnchorPoint: "D" 0 0 mark 0
LayerCount: 2
Fore
SplineSet
-22 592 m 2
 -8 607 6 607 22 592 c 2
 69 545 l 2
 84 530 84 516 69 501 c 2
 22 454 l 2
 7 440 -6 440 -22 455 c 2
 -69 503 l 2
 -84 517 -84 531 -69 545 c 2
 -22 592 l 2
EndSplineSet
Validated: 1
EndChar

StartChar: meteg
Encoding: 1469 1469 138
Width: 0
VWidth: 1761
GlyphClass: 4
Flags: W
HStem: -540 370
VStem: -55 109<-510.625 -201.25>
AnchorPoint: "M1" 0 0 mark 0
AnchorPoint: "N" 0 0 mark 0
AnchorPoint: "M2V" 55 0 mark 0
LayerCount: 2
Fore
SplineSet
-55 -232 m 1
 -55 -229 -50 -225 -41 -220 c 1
 41 -170 l 2
 49 -165 55 -174 55 -182 c 2
 54 -479 l 1
 53 -484 48 -488 39 -493 c 1
 -41 -540 l 2
 -49 -545 -55 -535 -55 -526 c 2
 -55 -232 l 1
EndSplineSet
Validated: 1
Ligature2: "'ccmp' Remove empty near meteg" empty meteg
Ligature2: "'ccmp' Remove empty near meteg" meteg empty
LCarets2: 1 0 
EndChar

StartChar: makaf
Encoding: 1470 1470 139
Width: 661
VWidth: 1761
Flags: W
HStem: 818 163<87.6719 568.762>
VStem: 62 538
LayerCount: 2
Fore
SplineSet
75 818 m 6
 62 818 57 824 62 837 c 6
 93 958 l 6
 98 972 107 981 119 981 c 5
 584 981 l 5
 599 981 605 972 600 958 c 6
 569 837 l 6
 564 824 554 818 540 818 c 6
 75 818 l 6
EndSplineSet
Validated: 1
EndChar

StartChar: rafe
Encoding: 1471 1471 140
Width: 0
VWidth: 1761
GlyphClass: 4
Flags: W
HStem: 1193 109<-165.875 166.875>
VStem: -179 359
AnchorPoint: "R" 0 0 mark 0
LayerCount: 2
Fore
SplineSet
-170 1193 m 2
 -179 1193 -182 1198 -179 1207 c 2
 -158 1287 l 2
 -155 1296 -149 1302 -141 1302 c 1
 169 1302 l 1
 179 1302 183 1296 180 1287 c 2
 159 1207 l 2
 156 1198 149 1193 140 1193 c 2
 -170 1193 l 2
EndSplineSet
Substitution2: "'salt' Stylistic Alternatives lookup-1" varika
EndChar

StartChar: shindot
Encoding: 1473 1473 142
Width: 0
VWidth: 1761
GlyphClass: 4
Flags: W
LayerCount: 2
Fore
SplineSet
-25 1332 m 2
 -8 1349 8 1349 25 1333 c 2
 78 1280 l 2
 94 1264 93 1248 78 1232 c 2
 24 1178 l 2
 8 1163 -8 1162 -24 1178 c 2
 -77 1231 l 2
 -93 1248 -93 1264 -78 1280 c 2
 -25 1332 l 2
EndSplineSet
Validated: 1
EndChar

StartChar: sindot
Encoding: 1474 1474 143
Width: 0
VWidth: 1761
GlyphClass: 4
Flags: W
LayerCount: 2
Fore
SplineSet
-25 1332 m 2
 -8 1349 8 1349 25 1333 c 2
 78 1280 l 2
 94 1264 93 1248 78 1232 c 2
 24 1178 l 2
 8 1163 -8 1162 -24 1178 c 2
 -77 1231 l 2
 -93 1248 -93 1264 -78 1280 c 2
 -25 1332 l 2
EndSplineSet
Validated: 1
EndChar

StartChar: sofpasuq
Encoding: 1475 1475 144
Width: 471
VWidth: 1761
Flags: W
HStem: 48 268<171.078 295> 742 269<173.75 298.578>
VStem: 100 268<121 244.922 815.094 938.688>
LayerCount: 2
Fore
SplineSet
196 297 m 2
 208 310 221 316 233 316 c 0
 245 316 258 310 270 298 c 2
 350 219 l 2
 362 207 368 195 368 183 c 0
 368 171 362 159 350 147 c 2
 269 66 l 2
 257 54 245 48 233 48 c 0
 221 48 209 54 197 66 c 2
 118 146 l 2
 106 158 100 171 100 183 c 0
 100 195 106 207 116 219 c 2
 156 260 l 1
 196 297 l 2
198 992 m 2
 210 1005 224 1011 236 1011 c 0
 248 1011 262 1005 274 993 c 2
 353 914 l 2
 365 902 371 890 371 878 c 0
 371 866 365 854 353 842 c 2
 272 760 l 2
 260 748 248 742 236 742 c 0
 224 742 212 748 200 760 c 2
 120 840 l 2
 108 852 100 866 100 878 c 0
 100 890 108 902 119 914 c 2
 160 954 l 1
 198 992 l 2
EndSplineSet
Validated: 1
EndChar

StartChar: alef
Encoding: 1488 1488 146
Width: 1236
VWidth: 1761
Flags: W
HStem: 0 21G<56.5 357> 860 189<959.188 1096.38>
VStem: 221 142<232.157 613.851> 866 78<672.602 839.133>
AnchorPoint: "R" 642 0 basechar 0
AnchorPoint: "VR" 645.148 0 basechar 0
AnchorPoint: "Holam" 190.148 0 basechar 0
AnchorPoint: "N" 649.148 0 basechar 0
AnchorPoint: "W" 645.148 0 basechar 0
AnchorPoint: "H" 645.148 0 basechar 0
LayerCount: 2
Fore
SplineSet
419 648 m 0
 397 648 363 567 363 493 c 0
 363 250 432 212 432 169 c 0
 432 165 431 160 430 156 c 1
 389 34 l 1
 379 1 371 0 343 0 c 2
 70 0 l 2
 43 0 43 0 52 24 c 2
 82 110 l 2
 94 146 93 144 132 156 c 2
 269 198 l 1
 258 271 221 328 221 436 c 0
 221 609 331 691 331 719 c 0
 331 730 324 741 306 758 c 10
 221 844 l 18
 206 860 209 863 218 888 c 2
 281 1056 l 2
 293 1090 293 1091 315 1063 c 2
 699 590 l 2
 719 564 731 553 742 553 c 0
 780 553 866 730 866 812 c 0
 866 840 830 843 837 860 c 2
 899 1016 l 2
 912 1047 913 1049 941 1049 c 2
 1101 1049 l 2
 1127 1049 1138 1042 1129 1013 c 2
 1093 892 l 2
 1083 859 1075 860 1047 860 c 0
 981 860 944 810 944 768 c 0
 944 617 859 479 859 448 c 0
 859 433 867 420 886 401 c 0
 993 286 1000 298 1116 211 c 0
 1138 194 1136 187 1125 165 c 2
 1051 16 l 2
 1041 -2 1039 -5 1022 12 c 0
 759 260 667 346 449 622 c 0
 436 639 427 648 419 648 c 0
EndSplineSet
Substitution2: "'jalt' Justification Alternatives lookup -1" alef.wide
EndChar

StartChar: bet
Encoding: 1489 1489 147
Width: 976
VWidth: 2273
Flags: W
HStem: 0 198<109.172 727 812 886.844> 860 189<288.201 583.091>
VStem: 213 64<1080.48 1166.15> 727 85<198.193 569.26>
AnchorPoint: "R" 477 0 basechar 0
AnchorPoint: "VR" 459.344 0 basechar 0
AnchorPoint: "Holam" 80 0 basechar 0
AnchorPoint: "H" 459.344 0 basechar 0
AnchorPoint: "W" 470.344 0 basechar 0
AnchorPoint: "N" 511.344 0 basechar 0
LayerCount: 2
Fore
SplineSet
837 0 m 2
 93 0 l 2
 67 0 53 4 64 31 c 1
 113 165 l 1
 126 196 127 198 155 198 c 2
 672 198 l 1
 716 198 727 203 727 223 c 0
 727 229 728 235 727 243 c 1
 673 607 706 860 451 860 c 2
 187 860 l 2
 162 860 141 877 149 902 c 1
 213 1132 l 2
 221 1157 248 1171 264 1171 c 0
 272 1171 277 1168 277 1162 c 0
 277 1124 292 1067 312 1049 c 9
 506 1049 l 18
 807 1049 812 858 812 247 c 2
 812 240 l 1
 812 204 814 198 841 198 c 1
 895 198 l 2
 921 198 933 191 924 162 c 2
 883 32 l 1
 871 0 865 0 837 0 c 2
EndSplineSet
EndChar

StartChar: gimel
Encoding: 1490 1490 148
Width: 790
VWidth: 2273
Flags: W
HStem: 0 200<108.859 295.033> 860 189<281.163 388.282>
VStem: 208 64<1098.9 1166.15>
AnchorPoint: "R" 400 50 basechar 0
AnchorPoint: "VR" 418.529 0 basechar 0
AnchorPoint: "Holam" 70 0 basechar 0
AnchorPoint: "H" 418.529 -30 basechar 0
AnchorPoint: "W" 395.529 0 basechar 0
AnchorPoint: "N" 415.529 0 basechar 0
LayerCount: 2
Fore
SplineSet
335 1049 m 0
 513 1049 544 1049 544 860 c 0
 544 374 658 267 729 218 c 0
 755 201 764 189 750 168 c 1
 669 95 662 52 644 4 c 1
 621 -33 606 -13 585 16 c 0
 519 107 485 252 471 379 c 1
 454 352 l 1
 295 19 316 0 131 0 c 2
 88 0 l 2
 62 0 50 3 60 30 c 2
 113 166 l 18
 125 196 149 200 166 200 c 0
 334 200 394 339 450 507 c 1
 423 769 437 860 268 860 c 2
 182 860 l 2
 157 860 137 877 144 902 c 2
 208 1132 l 1
 216 1157 243 1171 259 1171 c 0
 267 1171 272 1168 272 1162 c 0
 272 1148 281 1117 281 1098 c 0
 281 1067 306 1049 335 1049 c 0
EndSplineSet
EndChar

StartChar: dalet
Encoding: 1491 1491 149
Width: 963
VWidth: 2273
Flags: W
HStem: 860 189<229.201 604.848>
VStem: 154 64<1080.48 1166.15> 605 170<64.6323 622.763> 608 123<207.422 850.065>
AnchorPoint: "R" 510 0 basechar 0
AnchorPoint: "VR" 515.184 0 basechar 0
AnchorPoint: "Holam" 20 0 basechar 0
AnchorPoint: "H" 515.184 0 basechar 0
AnchorPoint: "W" 660.184 0 basechar 0
AnchorPoint: "N" 676.184 0 basechar 0
LayerCount: 2
Fore
SplineSet
128 860 m 2xd0
 103 860 82 877 90 902 c 1
 154 1132 l 2
 162 1157 189 1171 205 1171 c 0
 213 1171 218 1168 218 1162 c 0
 218 1124 233 1067 253 1049 c 1
 852 1049 l 1
 878 1049 889 1042 881 1012 c 2
 855 921 l 17
 823 810 777 923 743 774 c 1
 734 721 731 673 731 630 c 0xd0
 731 475 775 359 775 200 c 0
 775 125 733 65 694 14 c 1
 680 -5 679 -5 659 -10 c 1
 629 -18 l 1
 606 -23 605 -19 605 0 c 1xe0
 605 210 608 295 608 785 c 1
 608 834 592 860 520 860 c 1
 128 860 l 2xd0
EndSplineSet
Validated: 1
Substitution2: "'jalt' Justification Alternatives lookup -1" daled.wide
EndChar

StartChar: he
Encoding: 1492 1492 150
Width: 1155
VWidth: 2273
Flags: W
HStem: -18 21G<134 150> 860 189<272.201 829.848>
VStem: 197 64<1080.48 1166.15> 830 170<64.6323 622.763> 833 123<207.422 855.172>
AnchorPoint: "R" 600 0 basechar 0
AnchorPoint: "VR" 557 0 basechar 0
AnchorPoint: "Holam" 60 0 basechar 0
AnchorPoint: "H" 557 0 basechar 0
AnchorPoint: "W" 554 0 basechar 0
AnchorPoint: "N" 554 0 basechar 0
LayerCount: 2
Fore
SplineSet
171 860 m 2xe8
 146 860 126 877 133 902 c 2
 197 1132 l 1
 205 1157 232 1171 248 1171 c 0
 256 1171 261 1168 261 1162 c 0
 261 1124 276 1067 296 1049 c 1
 1031 1049 l 1
 1057 1049 1066 1042 1060 1012 c 2
 1043 921 l 17
 1021 822 991 903 968 774 c 0
 958 721 956 673 956 630 c 0xe8
 956 475 1000 359 1000 200 c 0
 1000 125 958 65 919 14 c 0
 905 -5 904 -4 884 -10 c 2
 854 -18 l 1
 831 -23 830 -19 830 0 c 0xf0
 830 210 833 295 833 785 c 0
 833 834 817 860 745 860 c 2
 171 860 l 2xe8
252 648 m 0
 276 658 283 655 283 620 c 0
 283 522 l 0
 283 455 308 354 308 247 c 0
 308 107 250 36 190 0 c 0
 180 -6 159 -18 141 -18 c 0
 127 -18 115 -10 115 17 c 0
 115 24 116 32 118 42 c 0
 211 553 102 587 252 648 c 0
EndSplineSet
Substitution2: "'jalt' Justification Alternatives lookup -1" he.wide
EndChar

StartChar: vav
Encoding: 1493 1493 151
Width: 597
VWidth: 2273
Flags: W
VStem: 132 64<1076.34 1166.15> 342 170<64.6323 620.764> 342 135<207.421 850.109>
AnchorPoint: "D" 170 0 basechar 0
AnchorPoint: "Holam_Haser_on_Vav" 10 0 basechar 0
AnchorPoint: "VR" 267.832 0 basechar 0
AnchorPoint: "N" 377.832 0 basechar 0
AnchorPoint: "W" 381.832 0 basechar 0
AnchorPoint: "H" 267.832 0 basechar 0
LayerCount: 2
Fore
SplineSet
477 801 m 0xa0
 477 743 476 671 476 628 c 0
 476 473 512 359 512 200 c 0xc0
 512 125 470 65 431 14 c 0
 417 -5 416 -4 396 -10 c 2
 366 -18 l 1
 343 -23 342 -19 342 0 c 0
 342 210 342 295 342 785 c 0
 342 834 323 848 257 860 c 2
 257 860 113 884 111 884 c 0
 91 888 75 910 81 934 c 2
 132 1132 l 2
 139 1157 167 1171 183 1171 c 0
 191 1171 196 1168 196 1162 c 0
 196 1124 210 1078 230 1060 c 1
 458 1014 477 953 477 852 c 1
 477 832 477 825 477 801 c 0xa0
EndSplineSet
Validated: 1
EndChar

StartChar: zain
Encoding: 1494 1494 152
Width: 637
VWidth: 2273
Flags: W
HStem: 802 194<442.263 516.651>
VStem: 139 64<1073.51 1166.16> 241 127<355.368 793.365> 267 159<64.6323 524.303>
AnchorPoint: "VR" 303.863 0 basechar 0
AnchorPoint: "Holam" 19 0 basechar 0
AnchorPoint: "N" 303.863 0 basechar 0
AnchorPoint: "W" 322.863 0 basechar 0
AnchorPoint: "H" 273.863 4 basechar 0
LayerCount: 2
Fore
SplineSet
241 569 m 0xe0
 241 694 262 758 262 783 c 0
 262 859 177 855 107 880 c 0
 80 890 84 909 89 928 c 2
 139 1132 l 2
 145 1157 174 1171 190 1171 c 0
 198 1171 203 1168 203 1162 c 0
 203 1124 218 1067 238 1049 c 9
 518 996 l 1
 549 986 551 969 543 940 c 2
 523 862 l 1
 515 841 500 802 469 802 c 0
 468 802 467 802 465 802 c 10
 437 808 l 17
 434 809 431 809 428 809 c 0
 402 809 386 777 381 763 c 0
 369 723 368 709 368 664 c 0xe0
 368 641 368 621 371 596 c 0
 383 482 426 350 426 200 c 0
 426 125 384 65 345 14 c 0
 331 -5 330 -4 310 -10 c 2
 280 -18 l 1
 257 -23 256 -19 256 0 c 0
 256 69 267 127 267 180 c 0xd0
 267 338 241 439 241 569 c 0xe0
EndSplineSet
Validated: 1
EndChar

StartChar: het
Encoding: 1495 1495 153
Width: 1228
VWidth: 2273
Flags: W
HStem: -18 21G<927 950> 860 189<373.515 902.848>
VStem: 133 208<102.039 377.16> 185 64<1080.48 1166.15> 219 112<352.152 819.068> 903 170<64.6323 622.763> 906 123<207.422 855.172>
AnchorPoint: "VR" 601.239 0 basechar 0
AnchorPoint: "Holam" 50 0 basechar 0
AnchorPoint: "N" 601.239 0 basechar 0
AnchorPoint: "W" 601.239 0 basechar 0
AnchorPoint: "H" 601.239 0 basechar 0
LayerCount: 2
Fore
SplineSet
331 621 m 0xca
 331 449 341 341 341 262 c 0xe0
 341 157 305 101 222 10 c 1
 209 -4 205 -8 185 -13 c 1xd0
 155 -18 l 1
 131 -21 133 -15 133 4 c 0xe0
 133 213 219 495 219 789 c 0xc8
 219 838 194 860 176 860 c 2
 159 860 l 2
 134 860 114 877 121 902 c 2
 185 1132 l 1
 193 1157 220 1171 236 1171 c 0
 244 1171 249 1168 249 1162 c 0
 249 1124 264 1067 284 1049 c 1
 1104 1049 l 1
 1130 1049 1139 1042 1133 1012 c 2
 1116 921 l 17
 1094 822 1064 903 1041 774 c 0
 1031 721 1029 673 1029 630 c 0xd2
 1029 475 1073 359 1073 200 c 0
 1073 125 1031 65 992 14 c 0
 978 -5 960 -12 940 -18 c 2
 927 -18 l 1
 904 -23 903 -19 903 0 c 0xc4
 903 210 906 295 906 785 c 0
 906 834 890 860 818 860 c 2
 450 860 l 2
 351 860 331 713 331 621 c 0xca
EndSplineSet
Validated: 1
EndChar

StartChar: tet
Encoding: 1496 1496 154
Width: 1107
Flags: W
HStem: -25 211<443.806 664.759> 860 220<689.985 856.013>
VStem: 188 135<385.005 818.618> 551 40<708.194 741.478> 901 128<300.455 812.245>
AnchorPoint: "VR" 625.57 0 basechar 0
AnchorPoint: "Holam" 50 0 basechar 0
AnchorPoint: "N" 569.57 0 basechar 0
AnchorPoint: "W" 586.57 0 basechar 0
AnchorPoint: "H" 625.57 0 basechar 0
LayerCount: 2
Fore
SplineSet
296 74 m 1
 241 186 188 313 188 516 c 0
 188 605 198 708 223 830 c 1
 223 838 196 868 175 874 c 1
 124 885 l 1
 85 892 79 902 86 927 c 1
 172 1121 l 2
 183 1145 209 1171 225 1171 c 0
 233 1171 238 1163 238 1157 c 0
 238 1119 253 1084 273 1066 c 9
 443 1017 l 2
 468 1010 477 1011 472 981 c 2
 452 863 l 17
 446 827 440 822 396 822 c 1
 362 822 326 819 323 802 c 1
 323 514 353 326 476 186 c 1
 620 186 704 206 833 260 c 1
 888 319 901 482 901 600 c 0
 901 658 898 704 895 722 c 1
 886 795 841 860 760 860 c 1
 681 860 633 777 591 714 c 1
 565 699 556 711 551 728 c 1
 588 881 639 1080 809 1080 c 0
 1023 1080 1029 792 1029 572 c 1
 1029 418 981 148 861 74 c 1
 798 37 805 44 451 -18 c 1
 423 -23 403 -25 387 -25 c 0
 349 -25 335 -3 296 74 c 1
EndSplineSet
EndChar

StartChar: yod
Encoding: 1497 1497 155
Width: 666
VWidth: 2273
Flags: W
VStem: 399 160<672.06 919>
AnchorPoint: "VR" 290 0 basechar 0
AnchorPoint: "Holam" 30 0 basechar 0
AnchorPoint: "N" 340 0 basechar 0
AnchorPoint: "W" 388 0 basechar 0
AnchorPoint: "H" 290 0 basechar 0
LayerCount: 2
Fore
SplineSet
264 1178 m 0
 264 1174 260 1162 260 1137 c 0
 260 1106 266 1074 278 1059 c 9
 423 1033 l 17
 525 1016 559 958 559 880 c 0
 559 784 494 590 445 506 c 1
 409 449 367 418 327 403 c 1
 321 401 315 400 309 400 c 0
 287 400 269 411 269 423 c 0
 269 424 269 426 270 428 c 1
 356 580 399 684 399 753 c 0
 399 817 362 851 287 865 c 2
 123 895 l 2
 103 898 88 912 88 928 c 0
 88 933 89 938 92 943 c 2
 195 1159 l 1
 206 1179 230 1188 246 1188 c 0
 257 1188 264 1185 264 1178 c 0
EndSplineSet
Validated: 1
EndChar

StartChar: finalkaf
Encoding: 1498 1498 156
Width: 986
VWidth: 2273
Flags: W
HStem: 860 189<229.201 675.394>
VStem: 154 64<1080.48 1166.15> 723 179<-359.368 251.143> 723 125<14.2339 813.705>
AnchorPoint: "VR" 214.183 0 basechar 0
AnchorPoint: "Holam" 20 0 basechar 0
AnchorPoint: "N" 470.183 -5 basechar 0
AnchorPoint: "W" 320.183 0 basechar 0
AnchorPoint: "H" 314.183 -5 basechar 0
LayerCount: 2
Fore
SplineSet
723 627 m 0xd0
 723 824 707 860 391 860 c 2
 128 860 l 2
 103 860 82 877 90 902 c 1
 154 1132 l 1
 162 1157 189 1171 205 1171 c 0
 213 1171 218 1168 218 1162 c 0
 218 1124 233 1067 253 1049 c 9
 613 1049 l 18
 820 1049 869 935 869 817 c 0
 869 749 848 532 848 475 c 0xd0
 848 164 902 -21 902 -224 c 0xe0
 902 -299 860 -359 821 -410 c 0
 810 -424 795 -430 777 -436 c 2
 747 -447 l 1
 724 -452 723 -447 723 -428 c 0
 723 -218 723 150 723 627 c 0xd0
EndSplineSet
Validated: 1
EndChar

StartChar: kaf
Encoding: 1499 1499 157
Width: 976
VWidth: 2273
Flags: W
HStem: 0 198<111.016 782.563> 860 189<289.201 643.129>
VStem: 214 64<1080.48 1166.15> 796 132<210.4 662.623>
AnchorPoint: "R" 500 0 basechar 0
AnchorPoint: "VR" 448.344 0 basechar 0
AnchorPoint: "Holam" 80 0 basechar 0
AnchorPoint: "N" 469.344 0 basechar 0
AnchorPoint: "W" 414.344 0 basechar 0
AnchorPoint: "H" 448.344 0 basechar 0
LayerCount: 2
Fore
SplineSet
115 165 m 1
 129 196 129 198 157 198 c 2
 673 198 l 18
 776 198 796 230 796 320 c 2
 796 407 l 2
 796 605 776 860 463 860 c 2
 188 860 l 2
 163 860 142 877 150 902 c 1
 214 1132 l 1
 222 1157 249 1171 265 1171 c 0
 273 1171 278 1168 278 1162 c 0
 278 1124 293 1067 313 1049 c 9
 631 1049 l 18
 894 1049 884 612 928 253 c 1
 928 141 815 0 727 0 c 10
 93 0 l 2
 67 0 53 4 64 31 c 2
 115 165 l 1
EndSplineSet
Validated: 1
Substitution2: "'jalt' Justification Alternatives lookup -1" khaf.wide
EndChar

StartChar: lamed
Encoding: 1500 1500 158
Width: 1012
VWidth: 2273
Flags: W
HStem: 860 189<243.719 730.614> 1441 197<258.558 376.062>
VStem: 99 121<914.5 1342.73> 749 166<674.53 911.5>
AnchorPoint: "J1" -18 0 basechar 0
AnchorPoint: "VR" 417 0 basechar 0
AnchorPoint: "Holam" -49 100 basechar 0
AnchorPoint: "N" 268 0 basechar 0
AnchorPoint: "W" 331 0 basechar 0
AnchorPoint: "H" 331 0 basechar 0
LayerCount: 2
Fore
SplineSet
258 1421 m 1
 228 1371 220 1302 220 1235 c 0
 220 1192 229 1141 241 1100 c 1
 255 1059 277 1049 307 1049 c 10
 761 1049 l 17
 869 1031 915 960 915 863 c 0
 915 613 595 171 261 11 c 1
 199 -16 195 -22 226 58 c 9
 289 198 l 17
 300 229 311 247 353 268 c 1
 616 407 749 616 749 746 c 0
 749 814 712 860 637 860 c 10
 181 860 l 18
 103 860 99 889 99 940 c 0
 99 1176 145 1348 193 1586 c 0
 203 1634 204 1638 251 1638 c 2
 379 1638 l 2
 422 1638 416 1626 407 1594 c 2
 374 1478 l 2
 365 1446 355 1441 325 1441 c 0
 275 1441 270 1439 258 1421 c 1
EndSplineSet
Validated: 1
Substitution2: "'jalt' Justification Alternatives lookup -1" lamed.wide
EndChar

StartChar: finalmem
Encoding: 1501 1501 159
Width: 1181
VWidth: 2273
Flags: W
HStem: 0 198<316.536 957.241> 860 189<314.496 851.031>
VStem: 168 64<1080.48 1166.15> 177 128<200.777 755.324> 961 93<201.665 713.287>
AnchorPoint: "VR" 639.021 0 basechar 0
AnchorPoint: "Holam" 30 0 basechar 0
AnchorPoint: "N" 601.021 0 basechar 0
AnchorPoint: "W" 637.021 0 basechar 0
AnchorPoint: "H" 639.021 0 basechar 0
LayerCount: 2
Fore
SplineSet
799 1049 m 2xe8
 1038 1049 1054 905 1054 744 c 2
 1054 140 l 2
 1054 103 1057 75 1057 55 c 0
 1057 8 1042 0 944 0 c 10
 237 0 l 18
 185 0 184 18 184 49 c 0
 184 130 177 211 177 290 c 0xd8
 177 510 193 708 237 833 c 9
 142 860 l 2
 118 867 96 877 104 902 c 1
 168 1132 l 1
 176 1157 203 1171 219 1171 c 0
 227 1171 232 1168 232 1162 c 0
 232 1124 247 1067 267 1049 c 9
 799 1049 l 2xe8
305 500 m 0
 305 236 308 198 374 198 c 10
 873 198 l 18
 957 198 961 222 961 291 c 2
 961 314 l 2
 961 443 930 634 928 650 c 0
 902 839 839 860 603 860 c 2
 364 860 l 2
 321 860 314 840 314 801 c 0
 314 700 305 600 305 500 c 0
EndSplineSet
Validated: 1
Substitution2: "'jalt' Justification Alternatives lookup -1" finalmem.wide
EndChar

StartChar: mem
Encoding: 1502 1502 160
Width: 1237
VWidth: 2273
Flags: W
HStem: 0 198<572.859 1049.59> 847 202<682.599 931.356>
VStem: 161 168<4.22237 172.67> 325 104<758.359 801.996> 1057 120<205.95 417.157>
AnchorPoint: "VR" 653.866 0 basechar 0
AnchorPoint: "Holam" 20 0 basechar 0
AnchorPoint: "N" 663.866 0 basechar 0
AnchorPoint: "W" 678.866 0 basechar 0
AnchorPoint: "H" 653.866 0 basechar 0
LayerCount: 2
Fore
SplineSet
161 20 m 0xe8
 161 97 325 462 325 702 c 0
 325 734 323 782 279 803 c 1
 131 860 l 2
 108 869 85 877 93 902 c 1
 157 1132 l 1
 164 1153 185 1172 200 1172 c 0
 210 1172 216 1168 221 1162 c 1
 241 1130 236 1067 256 1049 c 9
 332 998 451 1008 451 918 c 0
 451 880 441 861 429 772 c 1xd8
 429 752 454 745 468 759 c 1
 534 816 607 889 658 965 c 1
 721 1042 641 1049 811 1049 c 0
 1022 1049 1091 1019 1133 691 c 0
 1150 555 1177 420 1177 237 c 0
 1177 148 1139 0 986 0 c 10
 553 0 l 2
 527 0 513 4 524 31 c 2
 577 165 l 2
 590 196 591 198 619 198 c 2
 949 198 l 18
 1030 198 1057 207 1057 268 c 0
 1057 282 1053 298 1053 318 c 1
 1021 567 l 1
 986 764 945 847 803 847 c 0
 778 847 750 845 718 840 c 1
 681 828 637 804 619 789 c 1
 408 646 404 433 329 76 c 0
 317 18 308 0 246 0 c 10
 197 0 l 2
 172 0 161 2 161 20 c 0xe8
EndSplineSet
Validated: 1
EndChar

StartChar: finalnun
Encoding: 1503 1503 161
Width: 615
VWidth: 2273
Flags: W
HStem: 860 189<223.844 315.727>
VStem: 146 64<1080.48 1169.55> 319 123<332.16 852.266> 335 161<-335.486 100.066>
AnchorPoint: "VR" -240.817 0 basechar 0
AnchorPoint: "Holam" 12 0 basechar 0
AnchorPoint: "N" 98.1826 0 basechar 0
AnchorPoint: "W" -90.8174 0 basechar 0
AnchorPoint: "H" -90.8174 0 basechar 0
LayerCount: 2
Fore
SplineSet
476 899 m 1xe0
 476 815 442 903 442 644 c 2
 442 629 l 2xe0
 442 318 496 133 496 -70 c 0
 496 -120 493 -173 485 -232 c 1
 468 -342 412 -391 386 -421 c 1
 342 -461 335 -465 335 -387 c 0xd0
 335 84 319 313 319 790 c 0
 319 854 274 860 190 860 c 2
 120 860 l 2
 95 860 74 877 82 902 c 1
 146 1132 l 1
 153 1153 175 1173 190 1173 c 0
 199 1173 208 1169 210 1162 c 0
 216 1125 225 1067 245 1049 c 9
 428 1049 l 2
 467 1049 476 1013 476 985 c 2
 476 899 l 1xe0
EndSplineSet
Validated: 1
EndChar

StartChar: nun
Encoding: 1504 1504 162
Width: 729
VWidth: 2273
Flags: W
HStem: 0 198<103.172 490.958> 860 189<312 437.115>
VStem: 491 98<202.606 681.24>
AnchorPoint: "VR" 361 0 basechar 0
AnchorPoint: "Holam" 100 0 basechar 0
AnchorPoint: "N" 331 0 basechar 0
AnchorPoint: "W" 333 0 basechar 0
AnchorPoint: "H" 361 0 basechar 0
LayerCount: 2
Fore
SplineSet
624 76 m 0
 624 19 600 0 491 0 c 10
 87 0 l 2
 67 0 54 2 54 16 c 0
 54 20 55 25 58 31 c 2
 107 165 l 1
 120 196 121 198 149 198 c 2
 447 198 l 18
 485 198 491 218 491 247 c 0
 491 430 473 860 403 860 c 2
 212 860 l 2
 191 860 172 872 172 892 c 0
 172 895 173 898 174 902 c 2
 238 1132 l 1
 246 1157 268 1171 284 1171 c 0
 294 1171 302 1165 302 1153 c 0
 302 1116 317 1067 337 1049 c 9
 504 1049 l 18
 578 1049 589 975 589 860 c 2
 589 783 l 2
 589 685 596 606 596 505 c 0
 596 407 624 96 624 76 c 0
EndSplineSet
Validated: 1
EndChar

StartChar: samekh
Encoding: 1505 1505 163
Width: 1082
VWidth: 2273
Flags: W
HStem: -34 232<403.744 745.577> 860 189<281.294 798.68>
VStem: 167 105<382.558 840.675> 167 67<1078.94 1167.98> 877 128<309.542 782.375>
AnchorPoint: "VR" 604.791 0 basechar 0
AnchorPoint: "Holam" 30 0 basechar 0
AnchorPoint: "N" 569.791 0 basechar 0
AnchorPoint: "W" 529.791 0 basechar 0
AnchorPoint: "H" 604.791 0 basechar 0
LayerCount: 2
Fore
SplineSet
100 884 m 2xe8
 167 1132 l 2
 174 1156 200 1172 216 1172 c 0
 226 1172 234 1166 234 1153 c 0xd8
 234 1116 249 1067 269 1049 c 9
 789 1049 l 2
 868 1049 971 971 983 860 c 1
 998 783 1005 704 1005 624 c 0
 1005 290 939 -34 544 -34 c 0
 168 -34 167 315 167 772 c 1
 167 829 160 828 125 846 c 0
 117 849 93 857 100 884 c 2xe8
877 500 m 0
 877 773 851 860 603 860 c 0
 504 860 409 855 339 845 c 0
 291 838 272 828 272 760 c 1xe8
 272 247 407 198 557 198 c 0
 653 198 746 235 807 279 c 1
 871 341 877 394 877 456 c 0
 877 470 877 485 877 500 c 0
EndSplineSet
Validated: 1
EndChar

StartChar: ayin
Encoding: 1506 1506 164
Width: 1144
VWidth: 2273
Flags: W
HStem: 860 189<365.344 420 785.422 823.635>
VStem: 175 74<1066.39 1169.73> 245 114<599.146 840>
AnchorPoint: "D" 595 100 basechar 0
AnchorPoint: "VR" 451 0 basechar 0
AnchorPoint: "Holam" 45 0 basechar 0
AnchorPoint: "N" 441 0 basechar 0
AnchorPoint: "W" 541 0 basechar 0
AnchorPoint: "H" 451 0 basechar 0
LayerCount: 2
Fore
SplineSet
377 1049 m 18xc0
 434 1049 451 1035 451 1007 c 0
 451 998 449 989 446 978 c 2
 420 860 l 9
 359 844 l 17xa0
 359 568 515 357 635 327 c 1
 803 447 823 676 854 804 c 0
 858 822 864 836 831 843 c 10
 784 853 l 2
 759 859 744 857 755 884 c 1
 788 1015 l 1
 801 1046 802 1049 830 1049 c 2
 967 1049 l 2
 1025 1049 1053 1045 1053 1008 c 0
 1053 1000 1053 991 1050 980 c 10
 1024 860 l 25
 968 840 l 17
 878 348 885 122 175 -33 c 0xc0
 130 -43 98 -50 79 -50 c 0
 64 -50 57 -45 57 -32 c 0
 57 -19 64 2 77 34 c 9
 100 98 l 17
 133 173 142 175 238 191 c 2
 491 231 l 1
 344 333 245 594 245 840 c 1xa0
 153 860 l 2
 129 865 107 877 115 902 c 1
 175 1118 l 1
 183 1145 202 1171 218 1171 c 0
 228 1171 247 1165 249 1153 c 0
 254 1116 256 1063 278 1049 c 9
 377 1049 l 18xc0
EndSplineSet
Validated: 1
Substitution2: "'salt' Stylistic Alternatives lookup-1" ayin.alt
Substitution2: "Alternate Ayin Substitution Table" ayin.alt
EndChar

StartChar: finalpe
Encoding: 1507 1507 165
Width: 935
VWidth: 2273
Flags: W
HStem: 434 181<251.817 387.404> 860 189<277.367 613.275>
VStem: 116 128<616.071 853.301> 125 277<438.608 611.367> 668 138<190.425 806.666> 686 161<-343.044 97.8986>
AnchorPoint: "VR" 239 0 basechar 0
AnchorPoint: "Holam" 92 0 basechar 0
AnchorPoint: "H" 239 1 basechar 0
AnchorPoint: "W" 352 1 basechar 0
AnchorPoint: "N" 502 1 basechar 0
LayerCount: 2
Fore
SplineSet
250 684 m 0xe8
 250 620 276 615 305 615 c 0
 313 615 321 616 331 616 c 0
 363 616 384 603 392 550 c 10
 400 501 l 18
 402 489 402 479 402 471 c 0
 402 436 386 434 347 434 c 2
 202 434 l 2
 131 434 125 479 125 548 c 0xd0
 125 598 116 650 116 704 c 0
 116 810 130 924 176 1049 c 1
 203 1132 l 2
 211 1157 233 1171 249 1171 c 0
 259 1171 267 1166 267 1153 c 0
 267 1116 282 1067 302 1049 c 9
 491 1049 l 2
 727 1049 794 942 794 860 c 0
 794 858 806 838 806 633 c 2
 806 618 l 2xe8
 806 307 847 126 847 -77 c 0
 847 -127 845 -180 836 -239 c 0
 820 -349 765 -400 737 -428 c 0
 695 -470 686 -472 686 -394 c 0xc4
 686 77 668 129 668 663 c 0
 668 816 629 860 311 860 c 0
 252 860 244 827 244 788 c 0
 244 775 250 746 250 684 c 0xe8
EndSplineSet
Validated: 1
EndChar

StartChar: pe
Encoding: 1508 1508 166
Width: 975
VWidth: 2273
Flags: W
HStem: 0 198<118.797 780.657> 435 182<274.627 411.534> 860 189<295.367 636.658>
VStem: 145 117<621.727 854.948> 792 129<221.294 420.764>
AnchorPoint: "R" 516 0 basechar 0
AnchorPoint: "VR" 454 0 basechar 0
AnchorPoint: "Holam" 90 0 basechar 0
AnchorPoint: "H" 454 0 basechar 0
AnchorPoint: "W" 520 0 basechar 0
AnchorPoint: "N" 474 0 basechar 0
LayerCount: 2
Fore
SplineSet
225 435 m 2
 165 435 145 463 145 689 c 0
 145 794 154 938 194 1049 c 1
 221 1132 l 2
 229 1157 251 1171 267 1171 c 0
 277 1171 285 1166 285 1153 c 0
 285 1116 300 1067 320 1049 c 9
 560 1049 l 2
 784 1049 846 998 875 714 c 2
 919 288 l 1
 919 277 921 266 921 255 c 0
 921 108 798 0 730 0 c 10
 110 0 l 2
 90 0 77 2 77 16 c 0
 77 20 79 25 81 31 c 2
 122 165 l 1
 135 196 136 198 164 198 c 2
 570 198 l 2
 744 198 792 216 792 280 c 0
 792 302 786 330 778 364 c 1
 778 385 715 685 699 721 c 0
 666 799 671 860 329 860 c 0
 270 860 262 827 262 788 c 0
 262 785 262 782 262 778 c 0
 262 768 263 748 272 674 c 0
 278 631 303 617 329 617 c 0
 414 617 405 614 415 556 c 9
 421 508 l 18
 424 490 426 477 426 467 c 0
 426 437 409 435 353 435 c 2
 225 435 l 2
EndSplineSet
EndChar

StartChar: finaltsadi
Encoding: 1509 1509 167
Width: 1149
VWidth: 2273
Flags: W
HStem: 832 217<877.751 1015.17>
VStem: 146 64<1080.48 1167.74> 380 148<-382.588 89.6336> 750 318<893.219 1006.62>
AnchorPoint: "M1" 165 0 basechar 0
AnchorPoint: "Holam" 10 0 basechar 0
AnchorPoint: "H" 907.021 0 basechar 0
AnchorPoint: "W" 777.021 0 basechar 0
AnchorPoint: "N" 687.021 0 basechar 0
LayerCount: 2
Fore
SplineSet
444 979 m 2
 403 860 l 1
 389 842 385 828 385 814 c 0
 385 802 388 790 391 774 c 2
 445 448 l 1
 577 554 692 653 776 800 c 1
 759 831 750 847 750 865 c 0
 750 874 753 884 757 896 c 10
 798 1016 l 1
 811 1047 812 1049 840 1049 c 2
 976 1049 l 18
 1040 1049 1068 1039 1068 1009 c 0
 1068 1004 1068 998 1066 993 c 10
 1022 890 l 18
 1002 845 1002 844 944 832 c 1
 895 819 887 804 855 750 c 0
 747 574 621 445 469 286 c 1
 469 78 528 -73 528 -272 c 0
 528 -334 481 -394 464 -399 c 10
 428 -410 l 17
 375 -426 380 -414 380 -369 c 0
 380 -28 341 379 300 743 c 1
 289 821 252 830 188 842 c 1
 120 860 l 2
 96 866 74 877 82 902 c 1
 146 1132 l 1
 154 1157 176 1171 192 1171 c 0
 202 1171 210 1165 210 1153 c 0
 210 1116 225 1067 245 1049 c 9
 245 1049 350 1049 375 1049 c 0
 403 1049 429 1048 438 1036 c 0
 450 1022 448 990 444 979 c 2
EndSplineSet
Validated: 1
EndChar

StartChar: tsadi
Encoding: 1510 1510 168
Width: 1103
VWidth: 2273
Flags: W
HStem: 0 198<112.25 720.981> 832 217<847.146 967.17>
VStem: 194 64<1091.48 1178.74> 715 305<727 1025.71> 721 205<170.5 252.576>
AnchorPoint: "VR" 470.19 0 basechar 0
AnchorPoint: "Holam" 56 0 basechar 0
AnchorPoint: "H" 470.19 0 basechar 0
AnchorPoint: "W" 470.19 0 basechar 0
AnchorPoint: "N" 470.19 0 basechar 0
LayerCount: 2
Fore
SplineSet
99 0 m 2xe8
 73 0 59 4 68 30 c 2
 116 165 l 2
 127 196 130 198 158 198 c 2
 158 198 550 198 620 198 c 0
 695 198 721 207 721 224 c 0xe8
 721 245 682 276 650 314 c 0
 512 478 377 661 266 838 c 1
 168 871 l 2
 145 879 122 888 130 913 c 1
 194 1143 l 1
 202 1168 224 1182 240 1182 c 0
 250 1182 258 1176 258 1164 c 0
 258 1127 282 1067 302 1049 c 9
 432 1049 l 2
 460 1049 486 1048 495 1036 c 0
 507 1022 505 990 501 979 c 2
 451 871 l 1
 437 853 424 842 433 825 c 24
 501 695 606 554 640 510 c 1
 692 598 715 671 715 783 c 1
 699 841 692 861 692 876 c 0
 692 885 694 893 699 906 c 10
 733 1008 l 2
 745 1040 764 1049 792 1049 c 1
 928 1049 l 18
 992 1049 1020 1039 1020 1009 c 0xf0
 1020 1004 1020 998 1018 993 c 10
 974 890 l 18
 954 845 954 844 896 832 c 1
 847 819 847 787 832 735 c 0
 799 624 766 549 711 423 c 1
 766 358 829 302 891 244 c 1
 917 218 926 198 926 178 c 0
 926 163 921 146 913 126 c 9
 894 82 l 17
 868 9 837 0 762 0 c 10
 99 0 l 2xe8
EndSplineSet
Validated: 1
EndChar

StartChar: kof
Encoding: 1511 1511 169
Width: 1077
VWidth: 2273
Flags: W
HStem: 860 189<258 806.572>
VStem: 157 150<-381.589 240.574> 157 126<-120.848 537.865> 860 125<527.711 890.5>
AnchorPoint: "M1" 0 0 basechar 0
AnchorPoint: "Holam" 48 -1 basechar 0
AnchorPoint: "H" 679 0 basechar 0
AnchorPoint: "W" 569 0 basechar 0
AnchorPoint: "N" 561 0 basechar 0
LayerCount: 2
Fore
SplineSet
157 860 m 2xb0
 136 860 118 872 118 891 c 0
 118 895 119 898 120 902 c 2
 184 1132 l 1
 192 1157 214 1171 230 1171 c 0
 240 1171 248 1165 248 1153 c 0
 248 1116 263 1067 283 1049 c 9
 793 1049 l 2
 941 1049 985 921 985 860 c 0
 985 480 832 176 577 -10 c 1
 564 -18 548 -23 533 -23 c 0
 511 -23 492 -11 492 21 c 0
 492 30 494 41 497 54 c 10
 525 165 l 17
 537 218 553 224 603 248 c 1
 731 320 860 483 860 653 c 0
 860 801 800 860 650 860 c 10
 157 860 l 2xb0
230 -410 m 1
 204 -419 188 -425 177 -425 c 0
 157 -425 157 -407 157 -359 c 2xd0
 157 400 l 2
 157 468 162 481 192 527 c 2
 273 649 l 2
 276 654 284 657 290 657 c 0
 297 657 302 654 301 649 c 0
 288 537 283 438 283 346 c 0xb0
 283 136 307 -38 307 -242 c 0xd0
 307 -334 265 -392 230 -410 c 1
EndSplineSet
Validated: 1
EndChar

StartChar: resh
Encoding: 1512 1512 170
Width: 951
VWidth: 2273
Flags: W
HStem: 860 189<230 671.827>
VStem: 735 144<74.375 486.864>
AnchorPoint: "VR" 685 0 basechar 0
AnchorPoint: "Holam" 20 0 basechar 0
AnchorPoint: "H" 685 -1 basechar 0
AnchorPoint: "W" 785 -1 basechar 0
AnchorPoint: "N" 797 -1 basechar 0
LayerCount: 2
Fore
SplineSet
850 110 m 1
 816 34 l 2
 800 -2 792 -13 763 -27 c 1
 756 -30 750 -32 746 -32 c 0
 737 -32 735 -21 735 14 c 0
 735 104 722 540 722 624 c 0
 722 814 721 860 405 860 c 2
 130 860 l 2
 109 860 90 872 90 892 c 0
 90 895 91 898 92 902 c 1
 156 1132 l 1
 164 1157 186 1171 202 1171 c 0
 212 1171 220 1165 220 1153 c 0
 220 1116 235 1067 255 1049 c 9
 594 1049 l 18
 863 1049 828 843 849 667 c 1
 875 322 l 1
 875 306 879 234 879 222 c 0
 879 175 869 153 850 110 c 1
EndSplineSet
Validated: 1
Substitution2: "'jalt' Justification Alternatives lookup -1" resh.wide
EndChar

StartChar: shin
Encoding: 1513 1513 171
Width: 1422
VWidth: 2273
Flags: W
HStem: -18 217<436.504 758.877>
AnchorPoint: "VR" 652 0 basechar 0
AnchorPoint: "Holam" 13 0 basechar 0
AnchorPoint: "H" 652 0 basechar 0
AnchorPoint: "W" 612 0 basechar 0
AnchorPoint: "N" 562 0 basechar 0
LayerCount: 2
Fore
SplineSet
449 -18 m 0
 403 -18 361 -16 342 54 c 0
 286 263 267 472 234 724 c 0
 225 793 231 813 170 840 c 2
 123 860 l 2
 103 869 83 875 83 893 c 0
 83 895 84 899 85 902 c 2
 149 1132 l 2
 156 1154 179 1172 195 1172 c 0
 200 1172 213 1168 213 1153 c 0
 213 1116 228 1067 248 1049 c 1
 301 1049 354 1049 407 1049 c 0
 451 1049 469 1048 469 1029 c 0
 469 1020 465 1007 457 987 c 2
 434 926 l 1
 400 844 391 865 369 850 c 0
 343 832 337 819 337 793 c 0
 337 787 337 781 338 774 c 0
 360 558 361 398 470 244 c 1
 494 214 508 199 517 199 c 0
 527 199 531 217 539 256 c 10
 640 763 l 18
 644 784 647 799 647 809 c 0
 647 825 640 831 622 839 c 9
 601 847 l 2
 578 856 564 855 575 882 c 1
 624 1016 l 1
 637 1047 638 1049 666 1049 c 1
 859 1049 l 1
 903 1049 920 1048 920 1029 c 0
 920 1020 916 1007 908 987 c 2
 885 927 l 1
 852 844 843 865 820 850 c 0
 778 822 773 776 764 742 c 10
 634 266 l 18
 629 246 626 232 626 222 c 0
 626 206 634 202 654 202 c 0
 664 202 676 204 692 204 c 1
 959 242 1056 507 1119 750 c 0
 1124 771 1127 787 1127 798 c 0
 1127 830 1107 833 1074 843 c 10
 1053 850 l 2
 1029 857 1016 858 1026 885 c 2
 1076 1019 l 2
 1088 1050 1090 1052 1118 1052 c 2
 1310 1052 l 2
 1354 1052 1372 1051 1372 1032 c 0
 1372 1023 1368 1010 1360 990 c 2
 1336 930 l 1
 1304 846 1294 868 1272 853 c 0
 1229 824 1220 750 1212 718 c 0
 1117 345 1063 -18 449 -18 c 0
EndSplineSet
EndChar

StartChar: tav
Encoding: 1514 1514 172
Width: 1189
VWidth: 2273
Flags: W
HStem: 0 158<80.8618 264.104> 860 189<410.089 906.074>
VStem: 48 338<12.6562 130.138> 267 110<491.88 790.171> 272 139<168.917 434.525> 970 145<43.4799 549.931>
AnchorPoint: "R" 678 0 basechar 0
AnchorPoint: "VR" 676 0 basechar 0
AnchorPoint: "Holam" 158 0 basechar 0
AnchorPoint: "H" 676 -2 basechar 0
AnchorPoint: "W" 663 -2 basechar 0
AnchorPoint: "N" 636 -2 basechar 0
LayerCount: 2
Fore
SplineSet
826 1049 m 2xcc
 1081 1049 1060 843 1081 667 c 9
 1114 181 l 17
 1115 177 1115 173 1115 169 c 0
 1115 107 1062 21 1026 -18 c 1
 1013 -31 1003 -35 996 -35 c 0
 976 -35 970 3 970 70 c 0
 970 159 954 519 954 624 c 1
 954 809 953 860 637 860 c 2
 476 860 l 2
 410 860 377 758 377 689 c 1xd4
 409 249 l 1
 409 231 411 215 411 201 c 0xcc
 411 146 399 122 386 87 c 1
 351 4 345 0 256 0 c 10
 103 0 l 18
 61 0 48 7 48 23 c 0xe4
 48 36 57 55 66 82 c 1
 88 140 99 144 175 158 c 1
 260 171 272 177 272 277 c 0
 272 279 272 282 272 285 c 2xcc
 267 645 l 1xd4
 267 729 305 781 336 831 c 1
 272 860 l 2
 252 869 231 875 231 893 c 0
 231 895 232 899 233 902 c 1
 297 1132 l 1
 305 1157 327 1171 343 1171 c 0
 353 1171 361 1166 361 1153 c 0
 361 1116 376 1067 396 1049 c 9
 826 1049 l 2xcc
EndSplineSet
Substitution2: "'jalt' Justification Alternatives lookup -1" tav.wide
EndChar

StartChar: newshekel
Encoding: 8362 8362 186
Width: 1580
VWidth: 1761
Flags: W
HStem: -23 215<676.67 1020.7> 860 189<333.515 821.126>
VStem: 93 208<102.039 377.16> 145 64<1080.48 1166.15> 179 112<352.152 819.068> 485 103<240.534 541.122> 824 141<301.732 625.205> 824 125<423.303 855.172>
LayerCount: 2
Fore
SplineSet
291 621 m 0xcd
 291 449 301 341 301 262 c 0xe4
 301 157 265 101 182 10 c 0
 169 -4 165 -8 145 -13 c 1xd4
 115 -18 l 2
 91 -21 93 -15 93 4 c 0xe4
 93 213 179 495 179 789 c 0xcc
 179 838 154 860 136 860 c 2
 119 860 l 2
 94 860 74 877 81 902 c 2
 145 1132 l 1
 153 1157 180 1171 196 1171 c 0
 204 1171 209 1168 209 1162 c 0
 209 1124 224 1067 244 1049 c 1
 1024 1049 l 2
 1050 1049 1059 1042 1053 1012 c 2
 1036 921 l 17
 1014 822 984 903 961 774 c 0
 951 721 949 673 949 630 c 0xd5
 949 527 965 470 965 421 c 0xc6
 965 380 954 345 913 292 c 1
 896 271 869 264 848 259 c 0
 825 254 824 259 824 278 c 0
 824 488 824 295 824 785 c 0
 824 834 810 860 738 860 c 2
 410 860 l 2
 311 860 291 713 291 621 c 0xcd
588 504 m 0
 588 436 589 337 629 243 c 1
 653 213 661 206 676 198 c 1
 690 193 723 192 761 192 c 0
 823 192 898 196 922 200 c 0
 1189 238 1196 488 1247 747 c 0
 1252 768 1255 784 1255 795 c 0
 1255 827 1235 830 1202 840 c 10
 1181 847 l 2
 1157 854 1144 855 1154 882 c 2
 1204 1016 l 2
 1216 1047 1218 1049 1246 1049 c 2
 1438 1049 l 2
 1482 1049 1500 1048 1500 1029 c 0
 1500 1020 1496 1007 1488 987 c 2
 1464 927 l 1
 1432 843 1422 865 1400 850 c 0
 1357 821 1345 748 1340 715 c 0
 1280 322 1337 -23 723 -23 c 2
 679 -23 l 2
 633 -23 608 -13 572 50 c 0
 518 146 485 198 485 435 c 0
 485 505 482 524 421 551 c 2
 374 571 l 2
 354 580 334 586 334 604 c 0
 334 606 336 610 336 613 c 2
 358 687 l 1
 388 760 399 760 499 760 c 0
 552 760 605 760 658 760 c 0
 702 760 720 759 720 740 c 0
 720 731 716 718 708 698 c 2
 685 637 l 1
 651 555 642 576 620 561 c 0
 594 543 588 530 588 504 c 0
EndSplineSet
Validated: 1
EndChar

StartChar: Euro
Encoding: 8364 8364 187
Width: 932
Flags: W
HStem: 0 59<467.432 693.467> 399 63<90 170 334 602> 588 61<90 170 334 602> 991 62<461.739 690.356>
VStem: 170 160<246.251 399 462 588 649 811.9> 759 57<821 918.485> 775 64<165.948 258>
LayerCount: 2
Fore
SplineSet
556 0 m 0xfa
 328 0 205 163 176 399 c 1
 90 399 l 1
 90 462 l 1
 170 462 l 1
 169 471 170 480 170 489 c 0
 170 510 170 531 170 552 c 0
 170 564 169 576 170 588 c 1
 90 588 l 1
 90 649 l 1
 176 649 l 1
 215 988 405 1053 557 1053 c 0
 666 1053 750 1031 813 1013 c 1
 816 820 l 1
 759 821 l 1xfc
 744 923 l 1
 694 970 628 991 573 991 c 0
 478 991 359 951 334 649 c 1
 602 649 l 1
 602 588 l 1
 331 588 l 1
 330 576 330 565 330 553 c 2
 330 489 l 2
 330 480 330 471 331 462 c 1
 602 462 l 1
 602 399 l 1
 334 399 l 1
 359 116 475 59 569 59 c 0
 633 59 709 81 756 136 c 1
 775 258 l 1
 839 261 l 1
 836 51 l 1
 774 28 662 0 556 0 c 0xfa
EndSplineSet
Validated: 1
EndChar

StartChar: dottedcircle
Encoding: 9676 9676 188
Width: 1276
VWidth: 2273
Flags: W
HStem: 61 139<572.812 703.188> 121 139<349.939 480.187 795.812 926.061> 283 140<187.8 317.187 958.812 1088.2> 506 140<127.8 257.187 1018.81 1148.2> 729 140<187.8 317.187 958.812 1088.2> 892 139<349.939 480.187 795.812 926.061> 952 141<573.453 702.547>
VStem: 123 139<510.813 641.188> 183 139<287.939 418.187 733.812 864.061> 345 140<125.8 255.187 896.812 1026.2> 568 140<65.7997 195.187 956.812 1087.92> 791 140<125.8 255.187 896.812 1026.2> 954 139<287.939 418.187 733.812 864.061> 1014 139<510.813 641.188>
CounterMasks: 1 38
AnchorPoint: "Holam" 1095 3 basechar 0
LayerCount: 2
Fore
SplineSet
1024 869 m 0x3878
 1062 869 1093 837 1093 799 c 0
 1093 760 1062 729 1024 729 c 0
 985 729 954 760 954 799 c 0
 954 837 985 869 1024 869 c 0x3878
861 260 m 0x7870
 899 260 931 229 931 190 c 0
 931 152 899 121 861 121 c 0
 822 121 791 152 791 190 c 0
 791 229 822 260 861 260 c 0x7870
252 423 m 0
 291 423 322 392 322 353 c 0
 322 315 291 283 252 283 c 0
 214 283 183 315 183 353 c 0x38f0
 183 392 214 423 252 423 c 0
415 1031 m 0x3c70
 454 1031 485 1000 485 962 c 0
 485 923 454 892 415 892 c 0
 377 892 345 923 345 962 c 0
 345 1000 377 1031 415 1031 c 0x3c70
252 869 m 0
 291 869 322 837 322 799 c 0
 322 760 291 729 252 729 c 0
 214 729 183 760 183 799 c 0x38f0
 183 837 214 869 252 869 c 0
415 260 m 0x7870
 454 260 485 229 485 190 c 0
 485 152 454 121 415 121 c 0
 377 121 345 152 345 190 c 0
 345 229 377 260 415 260 c 0x7870
1024 423 m 0
 1062 423 1093 392 1093 353 c 0
 1093 315 1062 283 1024 283 c 0
 985 283 954 315 954 353 c 0x3878
 954 392 985 423 1024 423 c 0
861 1031 m 0x3c70
 899 1031 931 1000 931 962 c 0
 931 923 899 892 861 892 c 0
 822 892 791 923 791 962 c 0
 791 1000 822 1031 861 1031 c 0x3c70
638 200 m 0xb870
 677 200 708 169 708 130 c 0
 708 92 677 61 638 61 c 0
 599 61 568 92 568 130 c 0
 568 169 599 200 638 200 c 0xb870
1084 646 m 0
 1122 646 1153 615 1153 576 c 0
 1153 537 1122 506 1084 506 c 0
 1045 506 1014 537 1014 576 c 0x3874
 1014 615 1045 646 1084 646 c 0
638 1093 m 0x3a70
 677 1093 708 1060 708 1022 c 0
 708 983 677 952 638 952 c 0
 599 952 568 983 568 1022 c 0
 568 1060 599 1093 638 1093 c 0x3a70
192 646 m 0
 231 646 262 615 262 576 c 0
 262 537 231 506 192 506 c 0
 154 506 123 537 123 576 c 0x3970
 123 615 154 646 192 646 c 0
EndSplineSet
Validated: 1
EndChar

StartChar: ayin.alt
Encoding: 64288 64288 194
Width: 1144
VWidth: 2273
Flags: W
HStem: 860 189<365.344 420 785.422 823.635>
VStem: 175 74<1066.39 1169.73> 245 114<599.146 840>
AnchorPoint: "D" 595 100 basechar 0
AnchorPoint: "VR" 451 0 basechar 0
AnchorPoint: "Holam" 45 0 basechar 0
AnchorPoint: "N" 441 0 basechar 0
AnchorPoint: "W" 541 0 basechar 0
AnchorPoint: "H" 451 0 basechar 0
LayerCount: 2
Fore
SplineSet
377 1049 m 18xc0
 434 1049 451 1035 451 1007 c 0
 451 998 449 989 446 978 c 2
 420 860 l 9
 359 844 l 17xa0
 359 568 515 357 635 327 c 1
 803 447 823 676 854 804 c 0
 858 822 864 836 831 843 c 10
 784 853 l 2
 759 859 744 857 755 884 c 1
 788 1015 l 1
 801 1046 802 1049 830 1049 c 2
 967 1049 l 2
 1025 1049 1053 1045 1053 1008 c 0
 1053 1000 1053 991 1050 980 c 10
 1024 860 l 25
 968 840 l 17
 878 348 885 122 175 -33 c 0xc0
 130 -43 98 -50 79 -50 c 0
 64 -50 57 -45 57 -32 c 0
 57 -19 64 2 77 34 c 9
 100 98 l 17
 133 173 142 175 238 191 c 2
 491 231 l 1
 344 333 245 594 245 840 c 1xa0
 153 860 l 2
 129 865 107 877 115 902 c 1
 175 1118 l 1
 183 1145 202 1171 218 1171 c 0
 228 1171 247 1165 249 1153 c 0
 254 1116 256 1063 278 1049 c 9
 377 1049 l 18xc0
EndSplineSet
Validated: 1
EndChar

StartChar: alef.wide
Encoding: 64289 64289 195
Width: 1952
VWidth: 1761
Flags: W
HStem: -4 184<1729.88 1834.03> 844 189<1726.19 1863.38>
VStem: 220 142<232.157 613.851> 1633 78<686.233 823.133>
AnchorPoint: "R" 1000 0 basechar 0
AnchorPoint: "D" 894 -451 basechar 0
AnchorPoint: "VR" 926.53 3 basechar 0
AnchorPoint: "Holam" 130 0 basechar 0
AnchorPoint: "N" 930.53 3 basechar 0
AnchorPoint: "W" 926.53 3 basechar 0
AnchorPoint: "H" 926.53 3 basechar 0
LayerCount: 2
Fore
SplineSet
418 648 m 0
 396 648 362 567 362 493 c 0
 362 250 431 212 431 169 c 0
 431 165 430 160 429 156 c 1
 388 34 l 1
 378 1 370 0 342 0 c 2
 69 0 l 2
 42 0 42 0 51 24 c 2
 81 110 l 2
 93 146 92 144 131 156 c 2
 268 198 l 1
 257 271 220 328 220 436 c 0
 220 609 330 691 330 719 c 0
 330 730 323 741 305 758 c 10
 220 844 l 18
 205 860 208 863 217 888 c 2
 280 1056 l 2
 292 1090 284 1081 314 1063 c 1
 612 678 787 589 1179 420 c 1
 1255 391 1300 382 1330 382 c 0
 1371 382 1383 400 1407 405 c 0
 1444 413 1633 714 1633 796 c 0
 1633 824 1597 827 1604 844 c 2
 1666 1000 l 2
 1679 1031 1680 1033 1708 1033 c 2
 1868 1033 l 2
 1894 1033 1905 1026 1896 997 c 2
 1860 876 l 2
 1850 843 1842 844 1814 844 c 0
 1748 844 1711 794 1711 752 c 0
 1711 601 1548 346 1548 315 c 0
 1548 300 1580 280 1605 270 c 0
 1737 219 1743 221 1863 180 c 0
 1889 171 1883 156 1872 134 c 2
 1818 0 l 2
 1810 -20 1812 -11 1789 -4 c 0
 1380 114 717 348 448 622 c 0
 433 637 426 648 418 648 c 0
EndSplineSet
EndChar

StartChar: daled.wide
Encoding: 64290 64290 196
Width: 1948
VWidth: 2273
Flags: W
HStem: 860 190<229.201 1459.85>
VStem: 154 64<1080.48 1166.15> 1460 170<65.6323 623.763> 1463 123<208.422 851.145>
AnchorPoint: "R" 882 0 basechar 0
AnchorPoint: "D" 800 0 basechar 0
AnchorPoint: "VR" 1370.18 1 basechar 0
AnchorPoint: "Holam" 20 0 basechar 0
AnchorPoint: "H" 1370.18 1 basechar 0
AnchorPoint: "W" 1515.18 1 basechar 0
AnchorPoint: "N" 1531.18 1 basechar 0
LayerCount: 2
Fore
SplineSet
128 860 m 2xd0
 103 860 82 877 90 902 c 1
 154 1132 l 2
 162 1157 189 1171 205 1171 c 0
 213 1171 218 1168 218 1162 c 0
 218 1124 233 1068 253 1050 c 1
 1707 1050 l 1
 1733 1050 1744 1043 1736 1013 c 2
 1710 922 l 17
 1678 811 1632 924 1598 775 c 1
 1589 722 1586 674 1586 631 c 0xd0
 1586 476 1630 360 1630 201 c 0
 1630 126 1588 66 1549 15 c 1
 1535 -4 1534 -4 1514 -9 c 1
 1484 -18 l 1
 1461 -23 1460 -19 1460 0 c 1xe0
 1460 210 1463 296 1463 786 c 1
 1463 835 1447 860 1375 860 c 1
 128 860 l 2xd0
EndSplineSet
EndChar

StartChar: he.wide
Encoding: 64291 64291 197
Width: 2050
VWidth: 2273
Flags: W
HStem: -18 21G<134 150> 860 190<272.201 1718.85>
VStem: 197 64<1080.48 1166.15> 1719 170<65.6323 623.763> 1722 123<208.422 855.328>
AnchorPoint: "R" 957 0 basechar 0
AnchorPoint: "D" 957 0 basechar 0
AnchorPoint: "VR" 957 1 basechar 0
AnchorPoint: "Holam" 60 0 basechar 0
AnchorPoint: "H" 957 1 basechar 0
AnchorPoint: "W" 954 1 basechar 0
AnchorPoint: "N" 954 1 basechar 0
LayerCount: 2
Fore
SplineSet
171 860 m 2xe8
 146 860 126 877 133 902 c 2
 197 1132 l 1
 205 1157 232 1171 248 1171 c 0
 256 1171 261 1168 261 1162 c 0
 261 1124 276 1068 296 1050 c 1
 1920 1050 l 1
 1946 1050 1955 1043 1949 1013 c 2
 1932 922 l 17
 1910 823 1880 904 1857 775 c 0
 1847 722 1845 674 1845 631 c 0xe8
 1845 476 1889 360 1889 201 c 0
 1889 126 1847 66 1808 15 c 0
 1794 -4 1793 -3 1773 -9 c 2
 1743 -18 l 1
 1720 -23 1719 -19 1719 0 c 0xf0
 1719 210 1722 296 1722 786 c 0
 1722 835 1706 860 1634 860 c 2
 171 860 l 2xe8
252 648 m 0
 276 658 283 655 283 620 c 0
 283 522 l 0
 283 455 308 354 308 247 c 0
 308 107 250 36 190 0 c 0
 180 -6 159 -18 141 -18 c 0
 127 -18 115 -10 115 17 c 0
 115 24 116 32 118 42 c 0
 211 553 102 587 252 648 c 0
EndSplineSet
EndChar

StartChar: khaf.wide
Encoding: 64292 64292 198
Width: 1956
VWidth: 2273
Flags: W
HStem: 0 198<111.016 1654.56> 860 189<289.201 1515.13>
VStem: 214 64<1080.48 1166.15> 1668 132<210.4 662.623>
AnchorPoint: "R" 861 0 basechar 0
AnchorPoint: "D" 850 0 basechar 0
AnchorPoint: "VR" 920.345 0 basechar 0
AnchorPoint: "Holam" 70 0 basechar 0
AnchorPoint: "N" 941.345 0 basechar 0
AnchorPoint: "W" 886.345 0 basechar 0
AnchorPoint: "H" 920.345 0 basechar 0
LayerCount: 2
Fore
SplineSet
115 165 m 1
 129 196 129 198 157 198 c 2
 1545 198 l 18
 1648 198 1668 230 1668 320 c 2
 1668 407 l 2
 1668 605 1648 860 1335 860 c 2
 188 860 l 2
 163 860 142 877 150 902 c 1
 214 1132 l 1
 222 1157 249 1171 265 1171 c 0
 273 1171 278 1168 278 1162 c 0
 278 1124 293 1067 313 1049 c 9
 1503 1049 l 18
 1766 1049 1756 612 1800 253 c 1
 1800 141 1687 0 1599 0 c 1
 93 0 l 1
 67 0 53 4 64 31 c 2
 115 165 l 1
EndSplineSet
EndChar

StartChar: lamed.wide
Encoding: 64293 64293 199
Width: 1969
VWidth: 2273
Flags: W
HStem: 864 185<244.721 1619.61> 1441 197<258.558 376.062>
VStem: 99 121<914.5 1342.73> 1638 166<678.53 915.5>
AnchorPoint: "D" 800 0 basechar 0
AnchorPoint: "J1" -18 0 basechar 0
AnchorPoint: "VR" 1306 4 basechar 0
AnchorPoint: "Holam" -49 100 basechar 0
AnchorPoint: "N" 1157 4 basechar 0
AnchorPoint: "W" 1220 4 basechar 0
AnchorPoint: "H" 1220 4 basechar 0
LayerCount: 2
Fore
SplineSet
258 1421 m 1
 228 1371 220 1302 220 1235 c 0
 220 1192 229 1141 241 1100 c 1
 254 1077 267 1049 358 1049 c 1
 632 1049 1174 1053 1196 1053 c 10
 1650 1053 l 17
 1758 1035 1804 964 1804 867 c 0
 1804 617 1484 175 1150 15 c 1
 1088 -12 1084 -18 1115 62 c 9
 1178 202 l 17
 1189 233 1200 251 1242 272 c 1
 1505 411 1638 620 1638 750 c 0
 1638 818 1601 864 1526 864 c 10
 181 864 l 18
 103 864 99 889 99 940 c 0
 99 1176 145 1348 193 1586 c 0
 203 1634 204 1638 251 1638 c 2
 379 1638 l 2
 422 1638 416 1626 407 1594 c 2
 374 1478 l 2
 365 1446 355 1441 325 1441 c 0
 275 1441 270 1439 258 1421 c 1
EndSplineSet
Validated: 1
EndChar

StartChar: finalmem.wide
Encoding: 64294 64294 200
Width: 2041
VWidth: 2273
Flags: W
HStem: 0 198<316.536 1780.24> 860 189<314.496 1674.03>
VStem: 168 64<1080.48 1166.15> 177 128<200.777 755.324> 1784 93<201.665 713.287>
AnchorPoint: "D" 1000 0 basechar 0
AnchorPoint: "VR" 962.02 0 basechar 0
AnchorPoint: "Holam" 34 0 basechar 0
AnchorPoint: "N" 924.02 0 basechar 0
AnchorPoint: "W" 960.02 0 basechar 0
AnchorPoint: "H" 962.02 0 basechar 0
LayerCount: 2
Fore
SplineSet
1622 1049 m 2xe8
 1861 1049 1877 905 1877 744 c 2
 1877 140 l 2
 1877 103 1880 75 1880 55 c 0
 1880 8 1865 0 1767 0 c 1
 237 0 l 1
 185 0 184 18 184 49 c 0
 184 130 177 211 177 290 c 0xd8
 177 510 193 708 237 833 c 9
 142 860 l 2
 118 867 96 877 104 902 c 1
 168 1132 l 1
 176 1157 203 1171 219 1171 c 0
 227 1171 232 1168 232 1162 c 0
 232 1124 247 1067 267 1049 c 9
 1622 1049 l 2xe8
305 500 m 0
 305 236 308 198 374 198 c 10
 1696 198 l 18
 1780 198 1784 222 1784 291 c 2
 1784 314 l 2
 1784 443 1753 634 1751 650 c 0
 1725 839 1662 860 1426 860 c 2
 364 860 l 2
 321 860 314 840 314 801 c 0
 314 700 305 600 305 500 c 0
EndSplineSet
Validated: 1
EndChar

StartChar: resh.wide
Encoding: 64295 64295 201
Width: 1948
VWidth: 2273
Flags: W
HStem: 858 191<230 1586.83>
VStem: 1650 144<72.375 484.864>
AnchorPoint: "D" 900 0 basechar 0
AnchorPoint: "VR" 1600 -2 basechar 0
AnchorPoint: "Holam" 20 0 basechar 0
AnchorPoint: "H" 1600 -3 basechar 0
AnchorPoint: "W" 1700 -3 basechar 0
AnchorPoint: "N" 1712 -3 basechar 0
LayerCount: 2
Fore
SplineSet
1765 108 m 1
 1731 32 l 2
 1715 -4 1707 -15 1678 -29 c 1
 1671 -32 1665 -34 1661 -34 c 0
 1652 -34 1650 -23 1650 12 c 0
 1650 102 1637 538 1637 622 c 0
 1637 812 1636 858 1320 858 c 2
 130 858 l 2
 109 858 90 872 90 892 c 0
 90 895 91 898 92 902 c 1
 156 1132 l 1
 164 1157 186 1171 202 1171 c 0
 212 1171 220 1165 220 1153 c 0
 220 1116 235 1067 255 1049 c 9
 1509 1047 l 18
 1778 1047 1743 841 1764 665 c 1
 1790 320 l 1
 1790 304 1794 232 1794 220 c 0
 1794 173 1784 151 1765 108 c 1
EndSplineSet
Validated: 1
EndChar

StartChar: tav.wide
Encoding: 64296 64296 202
Width: 1948
VWidth: 2273
Flags: W
HStem: 0 158<-13.1382 170.104> 860 189<316.089 1619.31>
VStem: -46 338<12.6562 130.138> 173 110<491.88 790.171> 178 139<168.917 434.525> 1680 145<44.4799 550.931>
AnchorPoint: "R" 936 0 basechar 0
AnchorPoint: "D" 930 0 basechar 0
AnchorPoint: "VR" 936 1 basechar 0
AnchorPoint: "Holam" 65 0 basechar 0
AnchorPoint: "H" 936 -1 basechar 0
AnchorPoint: "W" 923 -1 basechar 0
AnchorPoint: "N" 896 -1 basechar 0
LayerCount: 2
Fore
SplineSet
1536 1050 m 2xcc
 1791 1050 1770 844 1791 668 c 9
 1824 182 l 17
 1825 178 1825 174 1825 170 c 0
 1825 108 1772 21 1736 -18 c 1
 1723 -31 1713 -34 1706 -34 c 0
 1686 -34 1680 4 1680 71 c 0
 1680 160 1664 520 1664 625 c 1
 1664 810 1663 860 1347 860 c 2
 382 860 l 2
 316 860 283 758 283 689 c 1xd4
 315 249 l 1
 315 231 317 215 317 201 c 0xcc
 317 146 305 122 292 87 c 1
 257 4 251 0 162 0 c 10
 9 0 l 18
 -33 0 -46 7 -46 23 c 0xe4
 -46 36 -37 55 -28 82 c 1
 -6 140 5 144 81 158 c 1
 166 171 178 177 178 277 c 0
 178 279 178 282 178 285 c 2xcc
 173 645 l 1xd4
 173 729 211 781 242 831 c 1
 178 860 l 2
 158 869 137 875 137 893 c 0
 137 895 138 899 139 902 c 1
 203 1132 l 1
 211 1157 233 1171 249 1171 c 0
 259 1171 267 1166 267 1153 c 0
 267 1116 282 1067 302 1049 c 9
 1536 1050 l 2xcc
EndSplineSet
EndChar

StartChar: hebrewplussign
Encoding: 64297 64297 203
Width: 952
VWidth: 2273
Flags: W
HStem: 443 179<94 390 573 860>
VStem: 390 183<622 913>
LayerCount: 2
Fore
SplineSet
94 443 m 1
 94 622 l 1
 390 622 l 1
 390 913 l 1
 573 913 l 1
 573 622 l 1
 860 622 l 1
 860 443 l 1
 94 443 l 1
EndSplineSet
Validated: 1
EndChar

StartChar: aleflamed
Encoding: 64335 64335 241
Width: 1419
VWidth: 2273
Flags: W
HStem: 828 221<249.719 454.196> 867 189<1144.19 1281.38> 1441 197<264.558 382.062>
VStem: 105 121<914.5 1342.73> 1051 78<679.602 846.133>
AnchorPoint: "VR" 803 0 basechar 0
AnchorPoint: "Holam" 19 96 basechar 0
AnchorPoint: "H" 803 0 basechar 0
AnchorPoint: "W" 803 0 basechar 0
AnchorPoint: "N" 752 0 basechar 0
LayerCount: 2
Fore
SplineSet
207 828 m 18xb8
 129 828 105 889 105 940 c 0
 105 1176 151 1348 199 1586 c 0
 209 1634 210 1638 257 1638 c 2
 385 1638 l 2
 428 1638 422 1626 413 1594 c 2
 380 1478 l 2
 371 1446 361 1441 331 1441 c 0
 281 1441 276 1439 264 1421 c 1
 234 1371 226 1302 226 1235 c 0
 226 1192 235 1141 247 1100 c 1
 261 1059 283 1049 313 1049 c 10
 399 1049 l 17xb8
 474 1049 498 1049 543 1006 c 1
 884 597 l 2
 905 572 916 560 927 560 c 0
 965 560 1051 737 1051 819 c 0
 1051 847 1015 850 1022 867 c 2
 1084 1023 l 2
 1097 1054 1098 1056 1126 1056 c 2
 1286 1056 l 1
 1309 1056 1322 1049 1314 1020 c 1
 1278 899 l 2
 1268 866 1260 867 1232 867 c 0x78
 1166 867 1129 817 1129 775 c 0
 1129 624 1044 486 1044 455 c 0
 1044 440 1052 427 1071 408 c 0
 1178 293 1185 305 1301 218 c 0
 1323 201 1321 194 1310 172 c 2
 1236 23 l 2
 1226 5 1224 2 1207 19 c 0
 944 267 685 492 467 768 c 1
 436 812 407 828 278 828 c 9
 207 828 l 18xb8
EndSplineSet
Validated: 1
LCarets2: 2 0 0 
Ligature2: "'ccmp' Alef Lamed" alef uni0000 lamed
Ligature2: "'ccmp' Alef Lamed" alef zerojoin lamed
EndChar

StartChar: nunhapukha
Encoding: 1478 1478 243
Width: 655
VWidth: 2273
Flags: W
HStem: 0 198<309.79 572.281> 860 189<361.537 498.094>
VStem: 170 64<1080.48 1168.04>
LayerCount: 2
Fore
SplineSet
198 824 m 1
 198 858 159 860 151 860 c 2
 142 860 l 2
 122 860 104 873 104 891 c 0
 104 895 105 898 106 902 c 2
 170 1132 l 2
 177 1154 200 1172 216 1172 c 0
 221 1172 234 1168 234 1153 c 0
 234 1115 249 1067 269 1049 c 1
 499 1049 l 2
 525 1049 536 1042 528 1013 c 2
 495 892 l 1
 483 860 477 860 449 860 c 2
 396 860 l 2
 331 860 309 489 309 290 c 2
 309 265 l 2
 309 210 315 198 419 198 c 10
 575 198 l 2
 595 198 607 194 607 178 c 0
 607 173 606 168 604 162 c 2
 569 32 l 1
 557 0 551 0 523 0 c 2
 253 0 l 2
 189 0 164 5 164 87 c 0
 164 115 165 152 170 200 c 1
 197 380 198 570 198 780 c 0
 198 795 198 809 198 824 c 1
EndSplineSet
Validated: 1
EndChar

StartChar: qamatsqatan
Encoding: 1479 1479 244
Width: 0
VWidth: 1761
GlyphClass: 4
Flags: W
HStem: -279 109<-148.547 -41 45 140.856>
VStem: -51 105<-539 -279>
AnchorPoint: "VR" -95 0 mark 0
AnchorPoint: "M2V" -282 0.333333 basemark 0
AnchorPoint: "W" 0.0172526 0.333333 mark 0
LayerCount: 2
Fore
SplineSet
45 -279 m 1
 54 -529 l 2
 54 -536 51 -539 44 -539 c 2
 -42 -539 l 2
 -47 -539 -51 -536 -51 -529 c 2
 -41 -279 l 1
 -153 -279 l 2
 -162 -279 -165 -275 -162 -266 c 2
 -141 -185 l 2
 -138 -176 -132 -170 -124 -170 c 1
 151 -170 l 1
 161 -170 165 -176 162 -185 c 2
 141 -266 l 2
 138 -275 131 -279 122 -279 c 2
 45 -279 l 1
EndSplineSet
Validated: 1
LCarets2: 1 0 
MultipleSubs2: "meteg-tenua-stage2" qamatsqatan meteg
Ligature2: "meteg-tenua-stage1" meteg qamatsqatan
EndChar

StartChar: uni0000
Encoding: 0 0 247
Width: 1761
VWidth: 0
Flags: W
HStem: 64 99<125 881> 288 153<364.808 502.434> 1079 77<323.916 573.055> 1294 77<125 881>
VStem: 52 73<163 1294> 262 42<968 1025.34> 358 152<294.531 433.805> 413 60<522 635.585> 599 116<783.703 1058.62> 881 91<163 1294>
LayerCount: 2
Fore
SplineSet
448 1156 m 0xfdc0
 611 1156 715 1092 715 940 c 0
 715 785 627 717 517 694 c 1
 490 688 l 1
 473 522 l 1
 413 522 l 1
 387 728 l 1
 496 751 l 1
 575 766 599 834 599 934 c 0
 599 1062 554 1079 447 1079 c 0
 398 1079 356 1067 324 1048 c 1
 304 968 l 1
 262 968 l 1
 262 1129 l 1
 316 1143 374 1156 448 1156 c 0xfdc0
434 441 m 0
 479 441 510 404 510 364 c 256
 510 326 480 288 434 288 c 0
 388 288 358 325 358 364 c 256xfec0
 358 404 388 441 434 441 c 0
125 1294 m 1
 125 163 l 1
 881 163 l 1
 881 1294 l 1
 125 1294 l 1
52 1371 m 1
 972 1371 l 1
 972 64 l 1
 52 64 l 1
 52 1371 l 1
EndSplineSet
Validated: 1
EndChar

StartChar: .notdef
Encoding: 65536 -1 249
Width: 1761
VWidth: 0
Flags: W
HStem: 64 99<125 881> 288 153<364.808 502.434> 1079 77<323.916 573.055> 1294 77<125 881>
VStem: 52 73<163 1294> 262 42<968 1025.34> 358 152<294.531 433.805> 413 60<522 635.585> 599 116<784.296 1059.39> 881 91<163 1294>
LayerCount: 2
Fore
SplineSet
448 1156 m 0xfdc0
 611 1156 715 1094 715 942 c 0
 715 787 627 717 517 694 c 1
 490 688 l 1
 473 522 l 1
 413 522 l 1
 387 728 l 1
 496 751 l 1
 575 766 599 834 599 934 c 0
 599 1062 554 1079 447 1079 c 0
 398 1079 356 1067 324 1048 c 1
 304 968 l 1
 262 968 l 1
 262 1129 l 1
 316 1143 374 1156 448 1156 c 0xfdc0
434 441 m 0
 479 441 510 404 510 364 c 256
 510 326 480 288 434 288 c 0
 388 288 358 325 358 364 c 256xfec0
 358 404 388 441 434 441 c 0
125 1294 m 1
 125 163 l 1
 881 163 l 1
 881 1294 l 1
 125 1294 l 1
52 1371 m 1
 972 1371 l 1
 972 64 l 1
 52 64 l 1
 52 1371 l 1
EndSplineSet
Validated: 1
EndChar

